<svg width="194" height="49" viewBox="0 0 194 49" fill="none" xmlns="http://www.w3.org/2000/svg">
<path d="M22.9428 34.9892L7.29138 48.3055H-6.10352e-05L19.2971 0.000366211H27.0285L46.2628 48.3055H38.5943L22.9428 34.9892Z" fill="url(#paint0_linear_155_22598)"/>
<path d="M72.5256 36.5998H68.571L74.5966 19.1453H79.3523L85.3693 36.5998H81.4148L77.0426 23.1339H76.9063L72.5256 36.5998ZM72.2784 29.739H81.6193V32.6197H72.2784V29.739Z" fill="white"/>
<path d="M91.0702 36.5998V19.1453H97.9566C99.2747 19.1453 100.4 19.3811 101.332 19.8526C102.269 20.3186 102.982 20.9805 103.471 21.8384C103.965 22.6907 104.212 23.6936 104.212 24.847C104.212 26.0061 103.962 27.0032 103.462 27.8384C102.962 28.668 102.238 29.3044 101.289 29.7475C100.346 30.1907 99.2037 30.4123 97.8628 30.4123H93.252V27.4464H97.2662C97.9708 27.4464 98.556 27.3498 99.0219 27.1566C99.4878 26.9634 99.8344 26.6737 100.062 26.2873C100.295 25.9009 100.411 25.4208 100.411 24.847C100.411 24.2674 100.295 23.7788 100.062 23.3811C99.8344 22.9833 99.485 22.6822 99.0134 22.4776C98.5475 22.2674 97.9594 22.1623 97.2492 22.1623H94.7605V36.5998H91.0702ZM100.496 28.6566L104.834 36.5998H100.761L96.5162 28.6566H100.496Z" fill="white"/>
<path d="M110.42 19.1453H114.971L119.778 30.8725H119.983L124.79 19.1453H129.341V36.5998H125.761V25.239H125.616L121.099 36.5146H118.662L114.145 25.1964H114V36.5998H110.42V19.1453Z" fill="white"/>
<path d="M138.99 36.5998H135.035L141.061 19.1453H145.816L151.833 36.5998H147.879L143.507 23.1339H143.37L138.99 36.5998ZM138.743 29.739H148.083V32.6197H138.743V29.739Z" fill="white"/>
<path d="M163.722 36.5998H157.534V19.1453H163.773C165.529 19.1453 167.04 19.4947 168.307 20.1936C169.574 20.8867 170.548 21.8839 171.23 23.185C171.918 24.4862 172.262 26.043 172.262 27.8555C172.262 29.6737 171.918 31.2362 171.23 32.543C170.548 33.8498 169.568 34.8526 168.29 35.5515C167.017 36.2504 165.494 36.5998 163.722 36.5998ZM161.225 33.4379H163.568C164.659 33.4379 165.577 33.2447 166.321 32.8583C167.071 32.4663 167.634 31.8612 168.009 31.043C168.389 30.2191 168.58 29.1566 168.58 27.8555C168.58 26.5657 168.389 25.5117 168.009 24.6936C167.634 23.8754 167.074 23.2731 166.33 22.8867C165.585 22.5004 164.668 22.3072 163.577 22.3072H161.225V33.4379Z" fill="white"/>
<path d="M180.619 36.5998H176.665L182.69 19.1453H187.446L193.463 36.5998H189.509L185.136 23.1339H185L180.619 36.5998ZM180.372 29.739H189.713V32.6197H180.372V29.739Z" fill="white"/>
<defs>
<linearGradient id="paint0_linear_155_22598" x1="23.1314" y1="0.000366211" x2="23.1314" y2="48.3054" gradientUnits="userSpaceOnUse">
<stop stop-color="#18FFF1"/>
<stop offset="1" stop-color="#00C2FF"/>
</linearGradient>
</defs>
</svg>
