<svg width="126" height="18" viewBox="0 0 126 18" fill="none" xmlns="http://www.w3.org/2000/svg">
<path d="M4.52559 17.5998H0.571045L6.59661 0.145264H11.3523L17.3693 17.5998H13.4148L9.04264 4.1339H8.90627L4.52559 17.5998ZM4.27843 10.739H13.6193V13.6197H4.27843V10.739Z" fill="white"/>
<path d="M23.0702 17.5998V0.145264H29.9566C31.2747 0.145264 32.3997 0.381059 33.3316 0.85265C34.2691 1.31856 34.9821 1.98049 35.4708 2.83845C35.9651 3.69072 36.2122 4.69356 36.2122 5.84697C36.2122 7.00606 35.9622 8.00322 35.4622 8.83845C34.9622 9.66799 34.2378 10.3044 33.2889 10.7475C32.3458 11.1907 31.2037 11.4123 29.8628 11.4123H25.252V8.4464H29.2662C29.9708 8.4464 30.556 8.34981 31.0219 8.15663C31.4878 7.96345 31.8344 7.67367 32.0617 7.28731C32.2946 6.90095 32.4111 6.42083 32.4111 5.84697C32.4111 5.26742 32.2946 4.77879 32.0617 4.38106C31.8344 3.98333 31.485 3.68219 31.0134 3.47765C30.5475 3.26742 29.9594 3.16231 29.2492 3.16231H26.7605V17.5998H23.0702ZM32.4963 9.65663L36.8344 17.5998H32.7605L28.5162 9.65663H32.4963Z" fill="white"/>
<path d="M42.4202 0.145264H46.9713L51.7781 11.8725H51.9827L56.7895 0.145264H61.3406V17.5998H57.7611V6.23901H57.6162L53.0992 17.5146H50.6617L46.1446 6.1964H45.9997V17.5998H42.4202V0.145264Z" fill="white"/>
<path d="M70.9897 17.5998H67.0351L73.0607 0.145264H77.8164L83.8334 17.5998H79.8789L75.5067 4.1339H75.3703L70.9897 17.5998ZM70.7425 10.739H80.0834V13.6197H70.7425V10.739Z" fill="white"/>
<path d="M95.7218 17.5998H89.5343V0.145264H95.7729C97.5286 0.145264 99.0399 0.494696 100.307 1.19356C101.574 1.88674 102.548 2.8839 103.23 4.18504C103.918 5.48617 104.262 7.04299 104.262 8.85549C104.262 10.6737 103.918 12.2362 103.23 13.543C102.548 14.8498 101.568 15.8526 100.29 16.5515C99.0172 17.2504 97.4945 17.5998 95.7218 17.5998ZM93.2246 14.4379H95.5684C96.6593 14.4379 97.5769 14.2447 98.3212 13.8583C99.0712 13.4663 99.6337 12.8612 100.009 12.043C100.389 11.2191 100.58 10.1566 100.58 8.85549C100.58 7.56572 100.389 6.51174 100.009 5.69356C99.6337 4.87538 99.074 4.2731 98.3297 3.88674C97.5854 3.50038 96.6678 3.3072 95.5769 3.3072H93.2246V14.4379Z" fill="white"/>
<path d="M112.619 17.5998H108.665L114.69 0.145264H119.446L125.463 17.5998H121.509L117.136 4.1339H117L112.619 17.5998ZM112.372 10.739H121.713V13.6197H112.372V10.739Z" fill="white"/>
</svg>
