<svg width="872" height="865" viewBox="0 0 872 865" fill="none" xmlns="http://www.w3.org/2000/svg">
<g opacity="0.05">
<path d="M368.396 287.125C364.347 278.465 368.733 272.655 378.15 274.221L528.517 299.191C537.929 300.753 540.055 307.513 533.242 314.204L441.37 404.504C434.556 411.2 425.667 409.601 421.617 400.936L368.396 287.125V287.125Z" fill="white"/>
<path d="M381.691 257.586C372.279 256.02 370.203 249.324 377.086 242.689L468.51 154.604C475.388 147.978 484.379 149.618 488.48 158.26L541.391 269.638C545.496 278.271 541.146 284.058 531.73 282.496L381.686 257.582L381.691 257.586Z" fill="white"/>
<path d="M507.316 158.399C503.211 149.762 507.251 145.184 516.307 148.233L644.998 191.524C654.049 194.569 655.63 202.284 648.525 208.66L579.194 270.884C572.084 277.265 562.908 275.421 558.803 266.779L507.316 158.399V158.399Z" fill="white"/>
<path d="M456.268 436.722C447.743 432.413 446.347 423.414 453.161 416.719L544.945 326.502C551.759 319.806 558.369 322.082 559.64 331.562L579.929 483.123C581.191 492.599 575.261 496.834 566.736 492.534L456.268 436.722Z" fill="white"/>
<path d="M594.337 301.61C585.706 297.519 584.467 288.956 591.572 282.575L660.857 220.392C667.972 214.012 676.107 216.263 678.946 225.396L716.191 345.208C719.029 354.345 714.296 358.465 705.67 354.382L594.337 301.61V301.61Z" fill="white"/>
<path d="M576.266 327.98C575.004 318.504 581.019 314.093 589.645 318.18L704.782 372.755C713.408 376.846 714.846 385.618 707.963 392.253L611.445 485.389C604.567 492.024 597.901 489.693 596.634 480.208L576.262 327.98H576.266Z" fill="white"/>
<path d="M430.332 461.178C431.784 451.721 439.952 447.514 448.472 451.814L558.381 507.343C566.901 511.643 566.887 518.663 558.353 522.944L424.827 589.863C416.288 594.14 410.496 589.905 411.952 580.457L430.328 461.178H430.332Z" fill="white"/>
<path d="M430.846 622.275C422.673 617.336 422.973 609.792 431.507 605.516L566.466 537.874C575.009 533.592 580.838 537.832 579.433 547.294L559.523 681.373C558.122 690.834 550.287 694.527 542.114 689.588L430.841 622.275H430.846Z" fill="white"/>
<path d="M596.913 545.01C598.313 535.548 606.514 531.179 615.126 535.289L703.244 577.39C711.856 581.509 712.665 589.572 705.033 595.313L588.781 682.786C581.154 688.522 576.055 685.483 577.465 676.021L596.913 545.01V545.01Z" fill="white"/>
<path d="M623.131 520.294C614.519 516.175 613.091 507.38 619.965 500.745L714.222 409.801C721.091 403.165 726.717 405.565 726.717 415.129V552.391C726.717 561.955 719.667 566.408 711.055 562.302L623.131 520.294V520.294Z" fill="white"/>
<path d="M761.91 386.911C754.218 381.244 753.279 370.911 759.825 363.951L803.847 317.11C810.393 310.141 816.814 312.198 818.122 321.674L832.147 423.173C833.451 432.649 828.232 435.768 820.54 430.101L761.905 386.911H761.91Z" fill="white"/>
<path d="M743.669 411.951C743.669 402.387 749.956 399.194 757.644 404.861L819.158 450.173C826.85 455.84 827.941 466.312 821.585 473.448L755.217 547.989C748.86 555.125 743.669 553.132 743.669 543.569V411.951Z" fill="white"/>
<path d="M736.537 613.18C738.83 603.894 747.442 600.238 755.684 605.062L786.425 623.035C794.667 627.859 795.966 637.409 789.305 644.257L720.427 715.156C713.765 722.01 710.187 720.017 712.48 710.731L736.532 613.18H736.537Z" fill="white"/>
<path d="M597.902 715.087C588.855 712.033 587.699 704.842 595.331 699.096L707.377 614.797C715.009 609.051 719.382 611.956 717.089 621.242L690.744 728.098C688.451 737.384 679.178 742.481 670.131 739.432L597.902 715.087V715.087Z" fill="white"/>
<path d="M564.889 740.192C567.344 730.948 576.751 725.874 585.798 728.923L653.585 751.78C662.627 754.829 662.974 760.686 654.357 764.792L560.109 809.715C551.493 813.829 546.449 809.627 548.899 800.373L564.884 740.192H564.889Z" fill="white"/>
<path d="M402.303 643.631C403.736 634.174 411.595 630.476 419.758 635.421L527.097 700.356C535.275 705.296 534.411 711.338 525.184 713.775L402.895 746.085C393.668 748.527 387.289 742.782 388.722 733.324L402.303 643.636V643.631Z" fill="white"/>
<path d="M416.824 771.325C408.133 767.382 408.568 762.155 417.795 759.713L534.767 728.812C543.994 726.374 549.537 731.944 547.082 741.183L530.39 804.052C527.935 813.301 518.814 817.634 510.119 813.686L416.824 771.321V771.325Z" fill="white"/>
<path d="M337.924 294.747C342.39 286.296 349.365 286.467 353.415 295.127L406.525 408.697C410.574 417.353 406.169 425.61 396.734 427.042L273.89 445.641C264.455 447.073 260.392 441.327 264.858 432.871L337.924 294.747V294.747Z" fill="white"/>
<path d="M271.918 477.141C265.081 470.468 267.208 463.838 276.643 462.401L399.089 443.862C408.524 442.43 415.056 448.996 413.599 458.449L395.215 577.811C393.759 587.268 386.973 589.534 380.14 582.862L271.918 477.141V477.141Z" fill="white"/>
<path d="M245.097 494.211C246.4 484.736 253.062 482.447 259.894 489.119L368.805 595.507C375.637 602.184 373.599 609.31 364.275 611.345L241.755 638.044C232.431 640.073 225.871 633.985 227.17 624.509L245.097 494.211V494.211Z" fill="white"/>
<path d="M250.233 666.466C242.333 661.1 243.503 655.044 252.827 653.015L371.255 627.21C380.579 625.176 387.037 631.255 385.604 640.712L372.046 730.248C370.613 739.705 362.981 743.055 355.081 737.68L250.238 666.466H250.233Z" fill="white"/>
<path d="M123.174 501.338C117.839 493.405 121.195 485.759 130.635 484.346L214.264 471.812C223.703 470.394 230.36 476.988 229.052 486.468L211.749 612.225C210.446 621.701 205.009 622.966 199.675 615.033L123.174 501.338Z" fill="white"/>
<path d="M158.859 318.523C161.734 309.409 167.193 309.122 170.989 317.898L222.296 436.435C226.091 445.216 221.478 453.547 212.038 454.965L128.27 467.522C118.831 468.935 113.459 462.629 116.334 453.505L158.859 318.523V318.523Z" fill="white"/>
<path d="M182.161 301.017C178.361 292.246 183.03 284.327 192.53 283.433L314.393 271.923C323.897 271.028 328.012 277.21 323.541 285.661L250.253 424.211C245.783 432.663 239.02 432.399 235.22 423.618L182.161 301.017V301.017Z" fill="white"/>
<path d="M271.12 157.574C277.139 150.151 285.414 151.147 289.509 159.794L326.232 237.324C330.323 245.965 325.899 253.778 316.4 254.672L199.422 265.714C189.923 266.608 187.07 261.27 193.089 253.847L271.12 157.574Z" fill="white"/>
<path d="M137.727 186.761C134.366 177.809 139.238 168.811 148.562 166.763L245.14 145.508C254.464 143.46 257.168 147.857 251.145 155.276L176.502 247.369C170.483 254.792 162.81 253.541 159.449 244.58L137.731 186.757L137.727 186.761Z" fill="white"/>
<path d="M111.057 200.616C115.439 192.118 121.768 192.488 125.133 201.44L145.792 256.442C149.153 265.394 144.59 275.444 135.645 278.785L71.57 302.699C62.6251 306.04 58.8946 301.814 63.2769 293.316L111.062 200.616H111.057Z" fill="white"/>
<path d="M55.1037 345.528C51.6136 336.627 56.0745 326.613 65.0194 323.277L133.269 297.801C142.209 294.465 147.179 299.201 144.303 308.32L103.295 438.478C100.425 447.602 95.2149 447.783 91.7201 438.877L55.1037 345.528Z" fill="white"/>
<path d="M113.389 642.626C103.848 642.487 96.5905 634.564 97.2608 625.018L104.44 523.042C105.11 513.492 110.024 512.18 115.363 520.108L188.943 629.462C194.277 637.399 190.838 643.771 181.297 643.632L113.394 642.626H113.389Z" fill="white"/>
<path d="M304.799 152.482C300.708 143.84 305.169 136.769 314.71 136.769H445.213C454.754 136.769 456.932 142.19 450.058 148.816L361.635 234.015C354.756 240.641 345.774 238.996 341.683 230.354L304.799 152.482Z" fill="white"/>
<path d="M324.016 119.773C314.47 119.773 312.56 114.648 319.772 108.379L399.292 39.2454C406.503 32.9761 416.474 34.5238 421.457 42.6882L459.447 104.941C464.425 113.101 460.69 119.773 451.149 119.773H324.02H324.016Z" fill="white"/>
<path d="M232.255 72.8901C239.291 66.4215 248.208 68.2982 252.068 77.0418L264.984 106.298C268.848 115.051 264.378 123.883 255.059 125.931L166.118 145.504C156.794 147.556 154.927 143.942 161.962 137.478L232.255 72.8947V72.8901Z" fill="white"/>
<path d="M267.102 69.1135C263.242 60.3653 267.75 51.7375 277.115 49.9304L367.97 32.4477C377.34 30.6452 379.11 34.2965 371.904 40.5612L300.173 102.925C292.962 109.194 283.901 107.165 280.041 98.4166L267.102 69.1135V69.1135Z" fill="white"/>
<path d="M157.937 103.481C161.977 94.8117 172.572 84.9236 181.485 81.504L193.277 76.9769C202.19 73.5619 203.724 76.0502 196.689 82.5095L158.783 117.345C151.747 123.809 149.297 122.006 153.337 113.342L157.937 103.481V103.481Z" fill="white"/>
<path d="M33.5584 516.249C29.5135 507.589 33.919 499.29 43.3493 497.812L72.5925 493.229C82.0228 491.756 89.188 498.349 88.513 507.894L82.0274 600.136C81.3525 609.681 77.4972 610.399 73.4523 601.735L33.563 516.249H33.5584Z" fill="white"/>
<path d="M39.1552 374.729C40.4958 365.258 44.4482 364.794 47.9383 373.691L80.8335 457.564C84.3282 466.47 79.4698 474.959 70.0441 476.437L40.8933 480.996C31.4676 482.474 24.8479 475.936 26.1839 466.461L39.1552 374.724V374.729Z" fill="white"/>
<path d="M46.1823 244.844C46.1823 235.28 51.2349 221.486 57.4108 214.192L113.401 148.07C119.572 140.777 121.925 140.596 118.629 147.672C115.329 154.748 109.046 167.495 104.664 175.993L54.1472 273.998C49.7695 282.496 46.1823 281.621 46.1823 272.052V244.839V244.844Z" fill="white"/>
<path d="M2.05421 422.436C-0.585352 413.248 -0.696297 398.175 1.80921 388.935L24.6731 304.696C27.1786 295.466 29.2311 295.739 29.2311 305.308V306.406C29.2311 315.97 28.1355 331.548 26.7949 341.014L13.3567 436.078C12.0161 445.549 8.75712 445.776 6.11756 436.583L2.05421 422.432V422.436Z" fill="white"/>
<path d="M40.441 596.401C33.4145 589.933 27.1924 576.824 26.6192 567.279L25.8888 555.06C25.3202 545.51 28.1585 544.787 32.2034 553.457L53.7729 599.682C57.8224 608.342 55.3724 610.145 48.3459 603.676L40.4364 596.401H40.441Z" fill="white"/>
<path d="M121.067 671.535C114.152 664.937 116.301 659.664 125.843 659.798L188.919 660.734C198.461 660.873 206.268 668.815 206.268 678.388V735.396C206.268 744.964 200.61 747.388 193.695 740.799L121.067 671.54V671.535Z" fill="white"/>
<path d="M143.593 745.831C134.343 743.491 124.252 734.163 121.178 725.109L111.683 697.164C108.609 688.114 111.748 686.094 118.658 692.688L172.929 744.441C179.845 751.039 177.926 754.514 168.676 752.179L143.593 745.831V745.831Z" fill="white"/>
<path d="M69.7593 652.625C64.6697 644.54 64.8038 641.88 70.0644 646.722C75.3297 651.564 81.7506 661.763 84.3393 669.394C86.9327 677.026 84.8848 676.646 79.7952 668.56L69.7593 652.625Z" fill="white"/>
<path d="M223.214 686.034C223.214 676.466 229.676 673.028 237.572 678.398L336.225 745.414C344.125 750.78 342.798 755.682 333.275 756.308L240.526 762.387C231.003 763.017 223.209 755.696 223.209 746.128V686.034H223.214Z" fill="white"/>
<path d="M261.995 786.806C253.461 782.524 254.27 778.507 263.793 777.882L348.98 772.298C358.498 771.672 365.455 778.943 364.434 788.451L361.216 818.379C360.195 827.897 352.378 832.174 343.84 827.892L261.995 786.806V786.806Z" fill="white"/>
<path d="M289.744 840.255C280.202 840.255 267.91 833.846 262.433 826.011L250.871 809.473C245.393 801.643 247.899 798.733 256.432 803.014L315.113 832.47C323.646 836.752 322.824 840.255 313.278 840.255H289.744V840.255Z" fill="white"/>
<path d="M179.418 778.516C171.509 773.16 172.609 770.695 181.863 773.035L192.782 775.792C202.037 778.141 214.088 786.463 219.562 794.298L224.757 801.726C230.235 809.557 228.248 811.591 220.338 806.235L179.418 778.521V778.516Z" fill="white"/>
<path d="M381.118 791.903C382.144 782.39 390.086 777.84 398.781 781.783L483.321 820.173C492.017 824.12 491.356 828.105 481.856 829.023L393.299 837.609C383.799 838.531 376.865 831.511 377.887 821.994L381.118 791.898V791.903Z" fill="white"/>
<path d="M426.267 858.182C417.141 855.384 417.442 852.349 426.942 851.427L480.805 846.195C490.305 845.278 491.539 848.799 483.556 854.04L475.531 859.299C467.538 864.54 453.541 866.527 444.415 863.738L426.271 858.182H426.267Z" fill="white"/>
<path d="M698.117 229.937C695.279 220.805 699.536 217.538 707.579 222.7L793.913 277.988C801.957 283.136 803.186 293.047 796.64 300.007L750.876 348.706C744.33 355.666 736.656 353.891 733.818 344.759L698.121 229.942L698.117 229.937Z" fill="white"/>
<path d="M706.027 201.547C697.988 196.395 696.93 186.645 703.674 179.885L728.591 154.91C735.34 148.145 744.35 149.609 748.621 158.172L792.643 246.424C796.91 254.982 793.817 257.767 785.783 252.619L706.027 201.543V201.547Z" fill="white"/>
<path d="M440.621 41.5389C435.642 33.379 439.243 28.1338 448.623 29.8807L549.189 48.6329C558.573 50.3798 560.127 56.6723 552.652 62.6126L499.454 104.853C491.974 110.788 481.781 108.977 476.803 100.817L440.621 41.5342V41.5389Z" fill="white"/>
<path d="M517.588 130.731C508.537 127.692 507.256 120.343 514.736 114.403L570.366 70.2349C577.836 64.2946 588.112 66.06 593.183 74.1642L648.961 163.301C654.036 171.405 650.787 175.548 641.735 172.499L517.588 130.731V130.731Z" fill="white"/>
<path d="M618.999 83.4359C613.923 75.3364 616.715 72.3013 625.193 76.694L713.579 122.497C722.062 126.885 723.477 136.018 716.727 142.779L691.765 167.805C685.011 174.561 675.34 173.476 670.274 165.368L619.003 83.4359H618.999Z" fill="white"/>
<path d="M470.159 16.6194C460.78 14.8679 460.646 11.4483 469.882 9.01098L496.726 1.93081C505.957 -0.497206 519.516 2.51001 526.861 8.61713L542.287 21.4523C549.628 27.564 547.964 31.1319 538.575 29.3804L470.164 16.624L470.159 16.6194Z" fill="white"/>
<path d="M606.774 40.1676C597.266 39.3336 583.485 33.6528 576.135 27.5364L573.888 25.669C566.548 19.5573 567.833 17.361 576.741 20.7852L616.986 36.2522C625.894 39.6765 625.404 41.794 615.9 40.9646L606.774 40.1676Z" fill="white"/>
<path d="M319.061 12.463C327.155 7.39847 341.587 2.97336 351.124 2.62584L422.285 0.0541816C431.822 -0.288706 433.528 1.03188 426.076 2.99653C418.624 4.96582 404.863 8.04718 395.488 9.85429L308.165 26.6604C298.795 28.4675 297.75 25.7986 305.844 20.734L319.061 12.4677V12.463Z" fill="white"/>
<path d="M643.551 67.0841C635.073 62.6914 635.914 59.7815 645.419 60.6155L670.645 62.8258C680.153 63.6552 692.422 70.74 697.918 78.5616L706.35 90.5765C711.837 98.3981 709.397 101.206 700.914 96.8134L643.546 67.0841H643.551Z" fill="white"/>
<path d="M775.67 174.417C771.404 165.854 774.025 163.727 781.49 169.686L801.465 185.626C808.931 191.585 814.88 204.281 814.691 213.849L814.284 233.737C814.094 243.305 810.442 244.125 806.176 235.576L775.666 174.426L775.67 174.417Z" fill="white"/>
<path d="M840.834 302.004C835.01 294.428 830.391 280.393 830.572 270.834L830.808 258.726C830.992 249.162 833.641 248.755 836.697 257.813L854.439 310.437C857.49 319.505 855.225 320.719 849.4 313.143L840.834 302.004V302.004Z" fill="white"/>
<path d="M837.114 339.022C835.764 329.551 839.425 328.003 845.25 335.579L863.884 359.817C869.713 367.398 871.29 380.748 867.402 389.477L856.978 412.91C853.09 421.644 848.8 421.046 847.455 411.58L837.114 339.022V339.022Z" fill="white"/>
<path d="M763.414 589.905C755.172 585.086 753.628 575.3 759.984 568.169L820.481 500.221C826.833 493.081 830.656 494.944 828.964 504.364L811.934 599.367C810.247 608.778 802.12 612.545 793.878 607.721L763.414 589.91V589.905Z" fill="white"/>
<path d="M860.157 476.15C857.18 467.058 857.929 452.481 861.817 443.742L865.843 434.688C869.731 425.954 872.431 426.616 871.843 436.161L868.977 482.456C868.386 492.006 865.469 492.381 862.496 483.295L860.157 476.15V476.15Z" fill="white"/>
<path d="M845.009 510.878C846.696 501.463 850.51 501.194 853.487 510.281L858.858 526.67C861.831 535.761 859.843 549.648 854.434 557.53L840.183 578.307C834.779 586.189 831.737 584.933 833.424 575.517L845.009 510.874V510.878Z" fill="white"/>
<path d="M782.308 675.817C788.965 668.964 791.84 670.748 788.688 679.779L782.419 697.743C779.267 706.774 769.411 716.991 760.508 720.448L742.026 727.635C733.127 731.101 731.297 728.32 737.954 721.472L782.313 675.817H782.308Z" fill="white"/>
<path d="M687.732 777.029C693.367 769.305 705.257 760.158 714.155 756.697L715.759 756.076C724.663 752.614 725.758 754.57 718.205 760.422L689.72 782.492C682.171 788.34 680.599 786.81 686.234 779.086L687.732 777.034V777.029Z" fill="white"/>
<path d="M520.995 849.805C528.1 845.143 541.719 841.617 551.26 841.974L554.773 842.104C564.31 842.456 564.523 844.583 555.254 846.839L524.934 854.188C515.656 856.431 513.881 854.461 520.995 849.809V849.805Z" fill="white"/>
<path d="M583.738 826.173C574.206 825.821 573.453 822.17 582.074 818.06L650.305 785.536C658.922 781.426 661.362 784.383 655.727 792.107L639.872 813.829C634.237 821.549 621.829 827.577 612.288 827.225L583.738 826.173V826.173Z" fill="white"/>
</g>
</svg>
