<svg width="914" height="916" viewBox="0 0 914 916" fill="none" xmlns="http://www.w3.org/2000/svg">
<g opacity="0.07">
<path d="M407.895 457.96L463.066 426.107V489.814L407.895 457.96Z" fill="white"/>
<path d="M411.205 423.273L463.066 393.331V453.215L411.205 423.273Z" fill="white"/>
<path d="M414.515 388.584L463.066 360.553V416.615L414.515 388.584Z" fill="white"/>
<path d="M417.826 353.894L463.066 327.775V380.014L417.826 353.894Z" fill="white"/>
<path d="M421.136 319.206L463.066 294.998V343.414L421.136 319.206Z" fill="white"/>
<path d="M424.446 284.517L463.066 262.22V306.814L424.446 284.517Z" fill="white"/>
<path d="M427.756 249.829L463.066 229.443V270.215L427.756 249.829Z" fill="white"/>
<path d="M431.067 215.14L463.066 196.665V233.615L431.067 215.14Z" fill="white"/>
<path d="M434.334 180.346L463.066 163.757V196.935L434.334 180.346Z" fill="white"/>
<path d="M437.688 145.763L463.066 131.11V160.415L437.688 145.763Z" fill="white"/>
<path d="M440.998 111.074L463.066 98.3331V123.816L440.998 111.074Z" fill="white"/>
<path d="M444.308 76.3848L463.066 65.5546V87.2148L444.308 76.3848Z" fill="white"/>
<path d="M447.618 41.696L463.066 32.7773V50.615L447.618 41.696Z" fill="white"/>
<path d="M450.929 7.00769L463.066 0V14.0154L450.929 7.00769Z" fill="white"/>
<path d="M450.929 908.894L463.066 901.886V915.902L450.929 908.894Z" fill="white"/>
<path d="M447.618 874.205L463.066 865.286V883.124L447.618 874.205Z" fill="white"/>
<path d="M444.308 839.517L463.066 828.687V850.347L444.308 839.517Z" fill="white"/>
<path d="M440.998 804.827L463.066 792.086V817.568L440.998 804.827Z" fill="white"/>
<path d="M437.688 770.138L463.066 755.486V784.791L437.688 770.138Z" fill="white"/>
<path d="M434.377 735.451L463.066 718.887V752.014L434.377 735.451Z" fill="white"/>
<path d="M431.067 700.761L463.066 682.286V719.236L431.067 700.761Z" fill="white"/>
<path d="M427.756 666.073L463.066 645.687V686.459L427.756 666.073Z" fill="white"/>
<path d="M424.446 631.384L463.066 609.086V653.681L424.446 631.384Z" fill="white"/>
<path d="M421.136 596.696L463.066 572.487V620.904L421.136 596.696Z" fill="white"/>
<path d="M417.826 562.007L463.066 535.887V588.126L417.826 562.007Z" fill="white"/>
<path d="M414.515 527.318L463.066 499.287V555.349L414.515 527.318Z" fill="white"/>
<path d="M411.205 492.629L463.066 462.687V522.571L411.205 492.629Z" fill="white"/>
<path d="M376.523 440.617L428.385 410.675V470.559L376.523 440.617Z" fill="white"/>
<path d="M379.834 405.929L428.385 377.898V433.959L379.834 405.929Z" fill="white"/>
<path d="M383.144 371.239L428.385 345.12V397.359L383.144 371.239Z" fill="white"/>
<path d="M386.454 336.552L428.385 312.343V360.76L386.454 336.552Z" fill="white"/>
<path d="M389.765 301.862L428.385 279.565V324.159L389.765 301.862Z" fill="white"/>
<path d="M393.075 267.173L428.385 246.787V287.559L393.075 267.173Z" fill="white"/>
<path d="M396.385 232.484L428.385 214.009V250.959L396.385 232.484Z" fill="white"/>
<path d="M399.652 197.717L428.385 181.129V214.306L399.652 197.717Z" fill="white"/>
<path d="M403.006 163.107L428.385 148.455V177.76L403.006 163.107Z" fill="white"/>
<path d="M406.316 128.418L428.385 115.677V141.16L406.316 128.418Z" fill="white"/>
<path d="M409.626 93.7302L428.385 82.8999V104.56L409.626 93.7302Z" fill="white"/>
<path d="M412.936 59.0415L428.385 50.1228V67.9605L412.936 59.0415Z" fill="white"/>
<path d="M416.247 24.3523L428.385 17.3446V31.36L416.247 24.3523Z" fill="white"/>
<path d="M416.247 891.55L428.385 884.542V898.558L416.247 891.55Z" fill="white"/>
<path d="M412.936 856.861L428.385 847.942V865.78L412.936 856.861Z" fill="white"/>
<path d="M409.626 822.173L428.385 811.342V833.003L409.626 822.173Z" fill="white"/>
<path d="M406.316 787.483L428.385 774.742V800.225L406.316 787.483Z" fill="white"/>
<path d="M403.006 752.795L428.385 738.142V767.447L403.006 752.795Z" fill="white"/>
<path d="M399.695 718.107L428.385 701.543V734.671L399.695 718.107Z" fill="white"/>
<path d="M396.385 683.418L428.385 664.943V701.893L396.385 683.418Z" fill="white"/>
<path d="M393.075 648.729L428.385 628.343V669.115L393.075 648.729Z" fill="white"/>
<path d="M389.765 614.04L428.385 591.743V636.337L389.765 614.04Z" fill="white"/>
<path d="M386.454 579.351L428.385 555.143V603.559L386.454 579.351Z" fill="white"/>
<path d="M383.144 544.663L428.385 518.543V570.782L383.144 544.663Z" fill="white"/>
<path d="M379.834 509.974L428.385 481.944V538.005L379.834 509.974Z" fill="white"/>
<path d="M376.523 475.285L428.385 445.343V505.227L376.523 475.285Z" fill="white"/>
<path d="M345.143 457.962L393.694 429.931V485.993L345.143 457.962Z" fill="white"/>
<path d="M345.143 423.274L393.694 395.243V451.304L345.143 423.274Z" fill="white"/>
<path d="M348.453 388.583L393.694 362.464V414.703L348.453 388.583Z" fill="white"/>
<path d="M351.764 353.896L393.694 329.687V378.104L351.764 353.896Z" fill="white"/>
<path d="M355.074 319.207L393.694 296.91V341.504L355.074 319.207Z" fill="white"/>
<path d="M358.384 284.519L393.694 264.133V304.905L358.384 284.519Z" fill="white"/>
<path d="M361.695 249.829L393.694 231.354V268.304L361.695 249.829Z" fill="white"/>
<path d="M364.961 215.088L393.694 198.499V231.677L364.961 215.088Z" fill="white"/>
<path d="M368.315 180.452L393.694 165.8V195.105L368.315 180.452Z" fill="white"/>
<path d="M371.625 145.764L393.694 133.023V158.505L371.625 145.764Z" fill="white"/>
<path d="M374.936 111.075L393.694 100.245V121.905L374.936 111.075Z" fill="white"/>
<path d="M378.246 76.3858L393.694 67.4669V85.3045L378.246 76.3858Z" fill="white"/>
<path d="M381.556 41.6973L393.694 34.6896V48.705L381.556 41.6973Z" fill="white"/>
<path d="M384.866 7.00882L393.694 1.91241V12.1052L384.866 7.00882Z" fill="white"/>
<path d="M384.866 908.894L393.694 903.797V913.991L384.866 908.894Z" fill="white"/>
<path d="M381.556 874.206L393.694 867.198V881.214L381.556 874.206Z" fill="white"/>
<path d="M378.246 839.518L393.694 830.599V848.437L378.246 839.518Z" fill="white"/>
<path d="M374.936 804.829L393.694 793.999V815.659L374.936 804.829Z" fill="white"/>
<path d="M371.625 770.14L393.694 757.399V782.882L371.625 770.14Z" fill="white"/>
<path d="M368.315 735.451L393.694 720.799V750.104L368.315 735.451Z" fill="white"/>
<path d="M365.005 700.763L393.694 684.2V717.327L365.005 700.763Z" fill="white"/>
<path d="M361.695 666.073L393.694 647.598V684.548L361.695 666.073Z" fill="white"/>
<path d="M358.384 631.385L393.694 611V651.772L358.384 631.385Z" fill="white"/>
<path d="M355.074 596.696L393.694 574.399V618.994L355.074 596.696Z" fill="white"/>
<path d="M351.764 562.008L393.694 537.799V586.216L351.764 562.008Z" fill="white"/>
<path d="M348.453 527.318L393.694 501.199V553.438L348.453 527.318Z" fill="white"/>
<path d="M345.143 492.63L393.694 464.599V520.661L345.143 492.63Z" fill="white"/>
<path d="M282.389 457.961L324.32 433.752V482.169L282.389 457.961Z" fill="white"/>
<path d="M282.389 423.273L324.32 399.064V447.481L282.389 423.273Z" fill="white"/>
<path d="M282.389 388.584L324.32 364.375V412.792L282.389 388.584Z" fill="white"/>
<path d="M285.699 353.895L324.32 331.598V376.192L285.699 353.895Z" fill="white"/>
<path d="M289.01 319.207L324.32 298.821V339.593L289.01 319.207Z" fill="white"/>
<path d="M292.32 284.518L324.32 266.044V302.993L292.32 284.518Z" fill="white"/>
<path d="M295.63 249.829L324.32 233.265V266.393L295.63 249.829Z" fill="white"/>
<path d="M298.941 215.14L324.32 200.488V229.792L298.941 215.14Z" fill="white"/>
<path d="M302.251 180.451L324.32 167.71V193.192L302.251 180.451Z" fill="white"/>
<path d="M305.561 145.764L324.32 134.934V156.594L305.561 145.764Z" fill="white"/>
<path d="M308.871 111.074L324.32 102.155V119.992L308.871 111.074Z" fill="white"/>
<path d="M312.182 76.3854L324.32 69.3774V83.3931L312.182 76.3854Z" fill="white"/>
<path d="M315.492 41.6963L324.32 36.5999V46.793L315.492 41.6963Z" fill="white"/>
<path d="M318.802 7.0071L324.32 3.82172V10.1925L318.802 7.0071Z" fill="white"/>
<path d="M318.802 908.894L324.32 905.709V912.079L318.802 908.894Z" fill="white"/>
<path d="M315.492 874.205L324.32 869.109V879.302L315.492 874.205Z" fill="white"/>
<path d="M312.182 839.517L324.32 832.509V846.524L312.182 839.517Z" fill="white"/>
<path d="M308.871 804.828L324.32 795.909V813.747L308.871 804.828Z" fill="white"/>
<path d="M305.561 770.138L324.32 759.308V780.968L305.561 770.138Z" fill="white"/>
<path d="M302.251 735.451L324.32 722.709V748.192L302.251 735.451Z" fill="white"/>
<path d="M298.941 700.762L324.32 686.109V715.414L298.941 700.762Z" fill="white"/>
<path d="M295.63 666.072L324.32 649.509V682.636L295.63 666.072Z" fill="white"/>
<path d="M292.32 631.383L324.32 612.909V649.858L292.32 631.383Z" fill="white"/>
<path d="M289.01 596.695L324.32 576.309V617.081L289.01 596.695Z" fill="white"/>
<path d="M285.699 562.007L324.32 539.71V584.304L285.699 562.007Z" fill="white"/>
<path d="M282.389 527.318L324.32 503.109V551.526L282.389 527.318Z" fill="white"/>
<path d="M282.389 492.63L324.32 468.422V516.839L282.389 492.63Z" fill="white"/>
<path d="M251.013 440.617L289.633 418.32V462.915L251.013 440.617Z" fill="white"/>
<path d="M251.013 405.929L289.633 383.632V428.226L251.013 405.929Z" fill="white"/>
<path d="M251.013 371.24L289.633 348.942V393.537L251.013 371.24Z" fill="white"/>
<path d="M254.323 336.551L289.633 316.165V356.937L254.323 336.551Z" fill="white"/>
<path d="M257.633 301.862L289.633 283.387V320.337L257.633 301.862Z" fill="white"/>
<path d="M260.943 267.173L289.633 250.61V283.737L260.943 267.173Z" fill="white"/>
<path d="M264.254 232.485L289.633 217.833V247.138L264.254 232.485Z" fill="white"/>
<path d="M267.564 197.796L289.633 185.054V210.537L267.564 197.796Z" fill="white"/>
<path d="M270.875 163.107L289.633 152.277V173.937L270.875 163.107Z" fill="white"/>
<path d="M274.185 128.418L289.633 119.5V137.337L274.185 128.418Z" fill="white"/>
<path d="M277.495 93.7304L289.633 86.7227V100.738L277.495 93.7304Z" fill="white"/>
<path d="M280.805 59.041L289.633 53.9446V64.1377L280.805 59.041Z" fill="white"/>
<path d="M284.116 24.3524L289.633 21.167V27.5378L284.116 24.3524Z" fill="white"/>
<path d="M284.116 891.55L289.633 888.365V894.736L284.116 891.55Z" fill="white"/>
<path d="M280.805 856.862L289.633 851.765V861.958L280.805 856.862Z" fill="white"/>
<path d="M277.495 822.173L289.633 815.165V829.181L277.495 822.173Z" fill="white"/>
<path d="M274.185 787.484L289.633 778.565V796.403L274.185 787.484Z" fill="white"/>
<path d="M270.875 752.796L289.633 741.966V763.626L270.875 752.796Z" fill="white"/>
<path d="M267.564 718.107L289.633 705.365V730.848L267.564 718.107Z" fill="white"/>
<path d="M264.254 683.418L289.633 668.766V698.071L264.254 683.418Z" fill="white"/>
<path d="M260.943 648.729L289.633 632.166V665.293L260.943 648.729Z" fill="white"/>
<path d="M257.633 614.04L289.633 595.565V632.515L257.633 614.04Z" fill="white"/>
<path d="M254.323 579.351L289.633 558.965V599.737L254.323 579.351Z" fill="white"/>
<path d="M251.013 544.663L289.633 522.365V566.96L251.013 544.663Z" fill="white"/>
<path d="M251.013 509.974L289.633 487.677V532.271L251.013 509.974Z" fill="white"/>
<path d="M251.013 475.286L289.633 452.989V497.583L251.013 475.286Z" fill="white"/>
<path d="M313.767 440.617L359.008 414.497V466.736L313.767 440.617Z" fill="white"/>
<path d="M313.767 405.928L359.008 379.809V432.048L313.767 405.928Z" fill="white"/>
<path d="M317.077 371.24L359.008 347.032V395.449L317.077 371.24Z" fill="white"/>
<path d="M320.388 336.551L359.008 314.253V358.848L320.388 336.551Z" fill="white"/>
<path d="M323.698 301.862L359.008 281.476V322.248L323.698 301.862Z" fill="white"/>
<path d="M327.008 267.174L359.008 248.699V285.649L327.008 267.174Z" fill="white"/>
<path d="M330.275 232.459L359.008 215.87V249.047L330.275 232.459Z" fill="white"/>
<path d="M333.629 197.796L359.008 183.144V212.449L333.629 197.796Z" fill="white"/>
<path d="M336.939 163.107L359.008 150.366V175.848L336.939 163.107Z" fill="white"/>
<path d="M340.249 128.418L359.008 117.588V139.248L340.249 128.418Z" fill="white"/>
<path d="M343.56 93.73L359.008 84.811V102.649L343.56 93.73Z" fill="white"/>
<path d="M346.87 59.0408L359.008 52.0331V66.0487L346.87 59.0408Z" fill="white"/>
<path d="M350.18 24.3521L359.008 19.2557V29.4488L350.18 24.3521Z" fill="white"/>
<path d="M350.18 891.55L359.008 886.454V896.647L350.18 891.55Z" fill="white"/>
<path d="M346.87 856.862L359.008 849.854V863.869L346.87 856.862Z" fill="white"/>
<path d="M343.56 822.172L359.008 813.253V831.091L343.56 822.172Z" fill="white"/>
<path d="M340.249 787.484L359.008 776.654V798.314L340.249 787.484Z" fill="white"/>
<path d="M336.939 752.795L359.008 740.054V765.536L336.939 752.795Z" fill="white"/>
<path d="M333.629 718.107L359.008 703.455V732.759L333.629 718.107Z" fill="white"/>
<path d="M330.318 683.418L359.008 666.854V699.982L330.318 683.418Z" fill="white"/>
<path d="M327.008 648.729L359.008 630.254V667.204L327.008 648.729Z" fill="white"/>
<path d="M323.698 614.041L359.008 593.655V634.427L323.698 614.041Z" fill="white"/>
<path d="M320.388 579.352L359.008 557.054V601.649L320.388 579.352Z" fill="white"/>
<path d="M317.077 544.663L359.008 520.455V568.872L317.077 544.663Z" fill="white"/>
<path d="M313.767 509.974L359.008 483.855V536.094L313.767 509.974Z" fill="white"/>
<path d="M313.767 475.285L359.008 449.165V501.404L313.767 475.285Z" fill="white"/>
<path d="M219.637 457.961L254.947 437.576V478.348L219.637 457.961Z" fill="white"/>
<path d="M219.637 423.273L254.947 402.887V443.66L219.637 423.273Z" fill="white"/>
<path d="M219.637 388.584L254.947 368.198V408.97L219.637 388.584Z" fill="white"/>
<path d="M219.637 353.895L254.947 333.509V374.281L219.637 353.895Z" fill="white"/>
<path d="M222.947 319.206L254.947 300.732V337.681L222.947 319.206Z" fill="white"/>
<path d="M226.258 284.518L254.947 267.954V301.081L226.258 284.518Z" fill="white"/>
<path d="M229.568 249.829L254.947 235.177V264.482L229.568 249.829Z" fill="white"/>
<path d="M232.878 215.141L254.947 202.4V227.882L232.878 215.141Z" fill="white"/>
<path d="M236.189 180.452L254.947 169.622V191.282L236.189 180.452Z" fill="white"/>
<path d="M239.499 145.763L254.947 136.844V154.682L239.499 145.763Z" fill="white"/>
<path d="M242.809 111.074L254.947 104.066V118.082L242.809 111.074Z" fill="white"/>
<path d="M246.119 76.3854L254.947 71.2887V81.4818L246.119 76.3854Z" fill="white"/>
<path d="M249.43 41.6975L254.947 38.5124V44.8829L249.43 41.6975Z" fill="white"/>
<path d="M249.43 874.206L254.947 871.021V877.392L249.43 874.206Z" fill="white"/>
<path d="M246.119 839.518L254.947 834.421V844.614L246.119 839.518Z" fill="white"/>
<path d="M242.809 804.83L254.947 797.822V811.838L242.809 804.83Z" fill="white"/>
<path d="M239.499 770.14L254.947 761.221V779.059L239.499 770.14Z" fill="white"/>
<path d="M236.189 735.451L254.947 724.621V746.281L236.189 735.451Z" fill="white"/>
<path d="M232.878 700.763L254.947 688.021V713.504L232.878 700.763Z" fill="white"/>
<path d="M229.568 666.074L254.947 651.421V680.726L229.568 666.074Z" fill="white"/>
<path d="M226.258 631.385L254.947 614.821V647.948L226.258 631.385Z" fill="white"/>
<path d="M222.947 596.696L254.947 578.221V615.171L222.947 596.696Z" fill="white"/>
<path d="M219.637 562.008L254.947 541.622V582.394L219.637 562.008Z" fill="white"/>
<path d="M219.637 527.319L254.947 506.933V547.705L219.637 527.319Z" fill="white"/>
<path d="M219.637 492.63L254.947 472.244V513.016L219.637 492.63Z" fill="white"/>
<path d="M188.26 440.617L220.259 422.143V459.092L188.26 440.617Z" fill="white"/>
<path d="M188.26 405.929L220.259 387.454V424.403L188.26 405.929Z" fill="white"/>
<path d="M188.26 371.24L220.259 352.765V389.715L188.26 371.24Z" fill="white"/>
<path d="M188.26 336.552L220.259 318.077V355.026L188.26 336.552Z" fill="white"/>
<path d="M191.57 301.864L220.259 285.3V318.428L191.57 301.864Z" fill="white"/>
<path d="M194.88 267.174L220.259 252.522V281.827L194.88 267.174Z" fill="white"/>
<path d="M198.19 232.485L220.259 219.744V245.226L198.19 232.485Z" fill="white"/>
<path d="M201.501 197.796L220.259 186.966V208.626L201.501 197.796Z" fill="white"/>
<path d="M204.811 163.107L220.259 154.188V172.026L204.811 163.107Z" fill="white"/>
<path d="M208.121 128.419L220.259 121.412V135.427L208.121 128.419Z" fill="white"/>
<path d="M211.432 93.7309L220.259 88.6343V98.8274L211.432 93.7309Z" fill="white"/>
<path d="M214.742 59.0421L220.259 55.8569V62.2274L214.742 59.0421Z" fill="white"/>
<path d="M214.742 856.862L220.259 853.677V860.048L214.742 856.862Z" fill="white"/>
<path d="M211.432 822.173L220.259 817.076V827.269L211.432 822.173Z" fill="white"/>
<path d="M208.121 787.484L220.259 780.476V794.491L208.121 787.484Z" fill="white"/>
<path d="M204.811 752.796L220.259 743.877V761.715L204.811 752.796Z" fill="white"/>
<path d="M201.501 718.107L220.259 707.277V728.937L201.501 718.107Z" fill="white"/>
<path d="M198.19 683.419L220.259 670.677V696.16L198.19 683.419Z" fill="white"/>
<path d="M194.88 648.73L220.259 634.078V663.383L194.88 648.73Z" fill="white"/>
<path d="M191.57 614.041L220.259 597.477V630.605L191.57 614.041Z" fill="white"/>
<path d="M188.26 579.353L220.259 560.878V597.828L188.26 579.353Z" fill="white"/>
<path d="M188.26 544.664L220.259 526.189V563.138L188.26 544.664Z" fill="white"/>
<path d="M188.26 509.975L220.259 491.5V528.449L188.26 509.975Z" fill="white"/>
<path d="M188.26 475.286L220.259 456.812V493.761L188.26 475.286Z" fill="white"/>
<path d="M156.883 457.962L185.573 441.399V474.526L156.883 457.962Z" fill="white"/>
<path d="M156.883 423.274L185.573 406.71V439.837L156.883 423.274Z" fill="white"/>
<path d="M156.883 388.586L185.573 372.022V405.149L156.883 388.586Z" fill="white"/>
<path d="M156.883 353.896L185.573 337.333V370.46L156.883 353.896Z" fill="white"/>
<path d="M156.883 319.207L185.573 302.644V335.771L156.883 319.207Z" fill="white"/>
<path d="M160.194 284.519L185.573 269.866V299.171L160.194 284.519Z" fill="white"/>
<path d="M163.504 249.831L185.573 237.089V262.572L163.504 249.831Z" fill="white"/>
<path d="M166.814 215.142L185.573 204.312V225.972L166.814 215.142Z" fill="white"/>
<path d="M170.125 180.453L185.573 171.534V189.372L170.125 180.453Z" fill="white"/>
<path d="M173.435 145.764L185.573 138.756V152.771L173.435 145.764Z" fill="white"/>
<path d="M176.745 111.075L185.573 105.979V116.172L176.745 111.075Z" fill="white"/>
<path d="M180.056 76.3864L185.573 73.2012V79.5717L180.056 76.3864Z" fill="white"/>
<path d="M180.056 839.518L185.573 836.333V842.703L180.056 839.518Z" fill="white"/>
<path d="M176.745 804.83L185.573 799.733V809.926L176.745 804.83Z" fill="white"/>
<path d="M173.435 770.141L185.573 763.133V777.149L173.435 770.141Z" fill="white"/>
<path d="M170.125 735.451L185.573 726.532V744.37L170.125 735.451Z" fill="white"/>
<path d="M166.814 700.763L185.573 689.933V711.593L166.814 700.763Z" fill="white"/>
<path d="M163.504 666.074L185.573 653.333V678.816L163.504 666.074Z" fill="white"/>
<path d="M160.194 631.385L185.573 616.733V646.038L160.194 631.385Z" fill="white"/>
<path d="M156.883 596.697L185.573 580.133V613.26L156.883 596.697Z" fill="white"/>
<path d="M156.883 562.009L185.573 545.446V578.573L156.883 562.009Z" fill="white"/>
<path d="M156.883 527.32L185.573 510.756V543.884L156.883 527.32Z" fill="white"/>
<path d="M156.883 492.631L185.573 476.068V509.195L156.883 492.631Z" fill="white"/>
<path d="M94.1287 457.962L116.197 445.22V470.703L94.1287 457.962Z" fill="white"/>
<path d="M94.1287 423.273L116.197 410.531V436.014L94.1287 423.273Z" fill="white"/>
<path d="M94.1287 388.585L116.197 375.843V401.326L94.1287 388.585Z" fill="white"/>
<path d="M94.1287 353.895L116.197 341.154V366.637L94.1287 353.895Z" fill="white"/>
<path d="M94.1287 319.207L116.197 306.466V331.948L94.1287 319.207Z" fill="white"/>
<path d="M94.1287 284.518L116.197 271.777V297.259L94.1287 284.518Z" fill="white"/>
<path d="M97.4389 249.829L116.197 238.999V260.659L97.4389 249.829Z" fill="white"/>
<path d="M100.749 215.141L116.197 206.222V224.06L100.749 215.141Z" fill="white"/>
<path d="M104.059 180.451L116.197 173.444V187.459L104.059 180.451Z" fill="white"/>
<path d="M107.37 145.764L116.197 140.667V150.86L107.37 145.764Z" fill="white"/>
<path d="M104.059 735.451L116.197 728.444V742.459L104.059 735.451Z" fill="white"/>
<path d="M100.749 700.762L116.197 691.843V709.681L100.749 700.762Z" fill="white"/>
<path d="M107.37 770.14L116.197 765.044V775.237L107.37 770.14Z" fill="white"/>
<path d="M97.4389 666.074L116.197 655.244V676.904L97.4389 666.074Z" fill="white"/>
<path d="M94.1287 631.386L116.197 618.644V644.127L94.1287 631.386Z" fill="white"/>
<path d="M94.1287 596.696L116.197 583.955V609.438L94.1287 596.696Z" fill="white"/>
<path d="M94.1287 562.008L116.197 549.266V574.749L94.1287 562.008Z" fill="white"/>
<path d="M94.1287 527.319L116.197 514.578V540.06L94.1287 527.319Z" fill="white"/>
<path d="M94.1287 492.63L116.197 479.889V505.372L94.1287 492.63Z" fill="white"/>
<path d="M62.7518 440.618L81.5101 429.788V451.448L62.7518 440.618Z" fill="white"/>
<path d="M62.7518 405.929L81.5101 395.099V416.76L62.7518 405.929Z" fill="white"/>
<path d="M62.7518 371.24L81.5101 360.41V382.07L62.7518 371.24Z" fill="white"/>
<path d="M62.7518 336.552L81.5101 325.722V347.382L62.7518 336.552Z" fill="white"/>
<path d="M62.7518 301.864L81.5101 291.034V312.694L62.7518 301.864Z" fill="white"/>
<path d="M62.7518 267.174L81.5101 256.344V278.004L62.7518 267.174Z" fill="white"/>
<path d="M66.0621 232.485L81.5101 223.566V241.404L66.0621 232.485Z" fill="white"/>
<path d="M69.3723 197.797L81.5101 190.789V204.804L69.3723 197.797Z" fill="white"/>
<path d="M69.3723 718.108L81.5101 711.1V725.116L69.3723 718.108Z" fill="white"/>
<path d="M66.0621 683.418L81.5101 674.499V692.337L66.0621 683.418Z" fill="white"/>
<path d="M62.7518 648.73L81.5101 637.9V659.56L62.7518 648.73Z" fill="white"/>
<path d="M62.7518 614.041L81.5101 603.211V624.871L62.7518 614.041Z" fill="white"/>
<path d="M62.7518 579.352L81.5101 568.522V590.182L62.7518 579.352Z" fill="white"/>
<path d="M62.7518 544.663L81.5101 533.833V555.493L62.7518 544.663Z" fill="white"/>
<path d="M62.7518 509.974L81.5101 499.144V520.804L62.7518 509.974Z" fill="white"/>
<path d="M62.7518 475.286L81.5101 464.457V486.117L62.7518 475.286Z" fill="white"/>
<path d="M31.3716 284.519L46.8196 275.6V293.438L31.3716 284.519Z" fill="white"/>
<path d="M31.3716 249.83L46.8196 240.911V258.749L31.3716 249.83Z" fill="white"/>
<path d="M31.3716 666.074L46.8196 657.155V674.993L31.3716 666.074Z" fill="white"/>
<path d="M31.3716 631.386L46.8196 622.467V640.305L31.3716 631.386Z" fill="white"/>
<path d="M31.3716 596.718L46.8196 587.799V605.637L31.3716 596.718Z" fill="white"/>
<path d="M31.3716 562.029L46.8196 553.11V570.948L31.3716 562.029Z" fill="white"/>
<path d="M31.3716 527.34L46.8196 518.421V536.259L31.3716 527.34Z" fill="white"/>
<path d="M31.3716 492.651L46.8196 483.732V501.57L31.3716 492.651Z" fill="white"/>
<path d="M31.3716 457.962L46.8196 449.044V466.881L31.3716 457.962Z" fill="white"/>
<path d="M31.3716 423.273L46.8196 414.354V432.192L31.3716 423.273Z" fill="white"/>
<path d="M31.3716 388.585L46.8196 379.666V397.504L31.3716 388.585Z" fill="white"/>
<path d="M31.3716 353.896L46.8196 344.977V362.815L31.3716 353.896Z" fill="white"/>
<path d="M31.3716 319.207L46.8196 310.289V328.126L31.3716 319.207Z" fill="white"/>
<path d="M0.000155725 579.373L12.1379 572.365V586.381L0.000155725 579.373Z" fill="white"/>
<path d="M0.000155725 544.685L12.1379 537.677V551.692L0.000155725 544.685Z" fill="white"/>
<path d="M0.000155725 509.996L12.1379 502.988V517.004L0.000155725 509.996Z" fill="white"/>
<path d="M0.000155725 475.307L12.1379 468.299V482.314L0.000155725 475.307Z" fill="white"/>
<path d="M0.000155725 440.619L12.1379 433.612V447.627L0.000155725 440.619Z" fill="white"/>
<path d="M0.000155725 405.93L12.1379 398.922V412.938L0.000155725 405.93Z" fill="white"/>
<path d="M0.000155725 371.242L12.1379 364.234V378.249L0.000155725 371.242Z" fill="white"/>
<path d="M0.000155725 336.552L12.1379 329.544V343.56L0.000155725 336.552Z" fill="white"/>
<path d="M901.862 579.35L914 572.342V586.357L901.862 579.35Z" fill="white"/>
<path d="M901.862 544.661L914 537.653V551.669L901.862 544.661Z" fill="white"/>
<path d="M901.862 509.972L914 502.964V516.979L901.862 509.972Z" fill="white"/>
<path d="M901.862 475.283L914 468.275V482.291L901.862 475.283Z" fill="white"/>
<path d="M901.862 440.594L914 433.587V447.602L901.862 440.594Z" fill="white"/>
<path d="M901.862 405.905L914 398.897V412.913L901.862 405.905Z" fill="white"/>
<path d="M901.862 371.217L914 364.21V378.225L901.862 371.217Z" fill="white"/>
<path d="M901.862 336.528L914 329.52V343.535L901.862 336.528Z" fill="white"/>
<path d="M863.866 596.695L879.314 587.776V605.614L863.866 596.695Z" fill="white"/>
<path d="M863.866 562.005L879.314 553.087V570.924L863.866 562.005Z" fill="white"/>
<path d="M863.866 527.316L879.314 518.398V536.235L863.866 527.316Z" fill="white"/>
<path d="M863.866 492.628L879.314 483.709V501.547L863.866 492.628Z" fill="white"/>
<path d="M863.866 457.939L879.314 449.02V466.858L863.866 457.939Z" fill="white"/>
<path d="M863.866 423.251L879.314 414.332V432.169L863.866 423.251Z" fill="white"/>
<path d="M863.866 388.561L879.314 379.643V397.48L863.866 388.561Z" fill="white"/>
<path d="M863.866 353.872L879.314 344.953V362.791L863.866 353.872Z" fill="white"/>
<path d="M125.507 440.618L150.886 425.966V455.271L125.507 440.618Z" fill="white"/>
<path d="M125.507 405.929L150.886 391.277V420.582L125.507 405.929Z" fill="white"/>
<path d="M125.507 371.241L150.886 356.588V385.893L125.507 371.241Z" fill="white"/>
<path d="M125.507 336.552L150.886 321.899V351.204L125.507 336.552Z" fill="white"/>
<path d="M125.507 301.863L150.886 287.211V316.516L125.507 301.863Z" fill="white"/>
<path d="M128.817 267.174L150.886 254.433V279.916L128.817 267.174Z" fill="white"/>
<path d="M132.128 232.486L150.886 221.655V243.316L132.128 232.486Z" fill="white"/>
<path d="M135.438 197.797L150.886 188.878V206.716L135.438 197.797Z" fill="white"/>
<path d="M138.748 163.108L150.886 156.101V170.116L138.748 163.108Z" fill="white"/>
<path d="M142.058 128.419L150.886 123.323V133.516L142.058 128.419Z" fill="white"/>
<path d="M142.058 787.485L150.886 782.389V792.582L142.058 787.485Z" fill="white"/>
<path d="M138.748 752.796L150.886 745.788V759.804L138.748 752.796Z" fill="white"/>
<path d="M135.438 718.108L150.886 709.189V727.026L135.438 718.108Z" fill="white"/>
<path d="M132.128 683.419L150.886 672.588V694.249L132.128 683.419Z" fill="white"/>
<path d="M128.817 648.73L150.886 635.989V661.471L128.817 648.73Z" fill="white"/>
<path d="M125.507 614.042L150.886 599.389V628.694L125.507 614.042Z" fill="white"/>
<path d="M125.507 579.352L150.886 564.699V594.004L125.507 579.352Z" fill="white"/>
<path d="M125.507 544.663L150.886 530.011V559.316L125.507 544.663Z" fill="white"/>
<path d="M125.507 509.975L150.886 495.323V524.627L125.507 509.975Z" fill="white"/>
<path d="M125.507 475.287L150.886 460.634V489.939L125.507 475.287Z" fill="white"/>
<path d="M863.866 319.205L879.314 310.286V328.124L863.866 319.205Z" fill="white"/>
<path d="M863.866 284.516L879.314 275.597V293.435L863.866 284.516Z" fill="white"/>
<path d="M863.866 249.827L879.314 240.908V258.746L863.866 249.827Z" fill="white"/>
<path d="M863.866 666.071L879.314 657.152V674.99L863.866 666.071Z" fill="white"/>
<path d="M863.866 631.383L879.314 622.464V640.302L863.866 631.383Z" fill="white"/>
<path d="M825.867 440.616L844.626 429.786V451.446L825.867 440.616Z" fill="white"/>
<path d="M825.867 405.927L844.626 395.097V416.757L825.867 405.927Z" fill="white"/>
<path d="M825.867 371.239L844.626 360.408V382.069L825.867 371.239Z" fill="white"/>
<path d="M825.867 336.55L844.626 325.719V347.38L825.867 336.55Z" fill="white"/>
<path d="M825.867 301.861L844.626 291.031V312.691L825.867 301.861Z" fill="white"/>
<path d="M825.867 267.171L844.626 256.341V278.001L825.867 267.171Z" fill="white"/>
<path d="M829.178 232.483L844.626 223.564V241.402L829.178 232.483Z" fill="white"/>
<path d="M832.488 197.795L844.626 190.787V204.802L832.488 197.795Z" fill="white"/>
<path d="M832.488 718.104L844.626 711.097V725.112L832.488 718.104Z" fill="white"/>
<path d="M829.178 683.415L844.626 674.496V692.334L829.178 683.415Z" fill="white"/>
<path d="M825.867 648.727L844.626 637.897V659.557L825.867 648.727Z" fill="white"/>
<path d="M825.867 614.039L844.626 603.208V624.868L825.867 614.039Z" fill="white"/>
<path d="M825.867 579.35L844.626 568.52V590.18L825.867 579.35Z" fill="white"/>
<path d="M825.867 544.661L844.626 533.831V555.492L825.867 544.661Z" fill="white"/>
<path d="M825.867 509.972L844.626 499.142V520.803L825.867 509.972Z" fill="white"/>
<path d="M825.867 475.284L844.626 464.454V486.114L825.867 475.284Z" fill="white"/>
<path d="M787.871 457.961L809.94 445.22V470.702L787.871 457.961Z" fill="white"/>
<path d="M787.871 423.27L809.94 410.529V436.012L787.871 423.27Z" fill="white"/>
<path d="M787.871 388.583L809.94 375.842V401.324L787.871 388.583Z" fill="white"/>
<path d="M787.871 353.894L809.94 341.153V366.635L787.871 353.894Z" fill="white"/>
<path d="M787.871 319.205L809.94 306.464V331.947L787.871 319.205Z" fill="white"/>
<path d="M787.871 284.516L809.94 271.775V297.257L787.871 284.516Z" fill="white"/>
<path d="M791.182 249.828L809.94 238.998V260.658L791.182 249.828Z" fill="white"/>
<path d="M794.492 215.139L809.94 206.221V224.058L794.492 215.139Z" fill="white"/>
<path d="M797.802 180.45L809.94 173.442V187.458L797.802 180.45Z" fill="white"/>
<path d="M801.112 145.762L809.94 140.665V150.858L801.112 145.762Z" fill="white"/>
<path d="M801.112 770.139L809.94 765.042V775.235L801.112 770.139Z" fill="white"/>
<path d="M797.802 735.45L809.94 728.442V742.457L797.802 735.45Z" fill="white"/>
<path d="M794.492 700.761L809.94 691.842V709.68L794.492 700.761Z" fill="white"/>
<path d="M791.182 666.073L809.94 655.243V676.903L791.182 666.073Z" fill="white"/>
<path d="M787.871 631.383L809.94 618.642V644.124L787.871 631.383Z" fill="white"/>
<path d="M787.871 596.694L809.94 583.953V609.436L787.871 596.694Z" fill="white"/>
<path d="M787.871 562.006L809.94 549.265V574.748L787.871 562.006Z" fill="white"/>
<path d="M787.871 527.318L809.94 514.576V540.059L787.871 527.318Z" fill="white"/>
<path d="M787.871 492.629L809.94 479.887V505.37L787.871 492.629Z" fill="white"/>
<path d="M711.876 457.959L740.565 441.396V474.523L711.876 457.959Z" fill="white"/>
<path d="M711.876 423.27L740.565 406.707V439.834L711.876 423.27Z" fill="white"/>
<path d="M711.876 388.582L740.565 372.019V405.146L711.876 388.582Z" fill="white"/>
<path d="M711.876 353.893L740.565 337.329V370.456L711.876 353.893Z" fill="white"/>
<path d="M711.833 319.31L740.565 302.721V335.899L711.833 319.31Z" fill="white"/>
<path d="M715.187 284.516L740.565 269.864V299.169L715.187 284.516Z" fill="white"/>
<path d="M718.497 249.827L740.565 237.086V262.568L718.497 249.827Z" fill="white"/>
<path d="M721.807 215.138L740.565 204.308V225.968L721.807 215.138Z" fill="white"/>
<path d="M725.118 180.45L740.565 171.531V189.369L725.118 180.45Z" fill="white"/>
<path d="M728.428 145.76L740.565 138.753V152.768L728.428 145.76Z" fill="white"/>
<path d="M731.738 111.072L740.565 105.976V116.169L731.738 111.072Z" fill="white"/>
<path d="M735.048 76.3839L740.565 73.1985V79.5691L735.048 76.3839Z" fill="white"/>
<path d="M735.048 839.514L740.565 836.329V842.7L735.048 839.514Z" fill="white"/>
<path d="M731.738 804.826L740.565 799.729V809.922L731.738 804.826Z" fill="white"/>
<path d="M728.428 770.138L740.565 763.13V777.146L728.428 770.138Z" fill="white"/>
<path d="M725.118 735.449L740.565 726.53V744.368L725.118 735.449Z" fill="white"/>
<path d="M721.807 700.759L740.565 689.929V711.589L721.807 700.759Z" fill="white"/>
<path d="M718.497 666.071L740.565 653.33V678.812L718.497 666.071Z" fill="white"/>
<path d="M715.187 631.382L740.565 616.73V646.035L715.187 631.382Z" fill="white"/>
<path d="M711.876 596.694L740.565 580.13V613.257L711.876 596.694Z" fill="white"/>
<path d="M711.876 562.006L740.565 545.442V578.57L711.876 562.006Z" fill="white"/>
<path d="M711.876 527.317L740.565 510.753V543.881L711.876 527.317Z" fill="white"/>
<path d="M711.876 492.628L740.565 476.065V509.192L711.876 492.628Z" fill="white"/>
<path d="M673.878 440.615L705.878 422.14V459.09L673.878 440.615Z" fill="white"/>
<path d="M673.878 405.927L705.878 387.452V424.402L673.878 405.927Z" fill="white"/>
<path d="M673.878 371.237L705.878 352.762V389.712L673.878 371.237Z" fill="white"/>
<path d="M673.878 336.549L705.878 318.074V355.024L673.878 336.549Z" fill="white"/>
<path d="M677.145 301.939L705.878 285.35V318.528L677.145 301.939Z" fill="white"/>
<path d="M680.499 267.172L705.878 252.519V281.825L680.499 267.172Z" fill="white"/>
<path d="M683.809 232.483L705.878 219.742V245.224L683.809 232.483Z" fill="white"/>
<path d="M687.119 197.795L705.878 186.964V208.625L687.119 197.795Z" fill="white"/>
<path d="M690.43 163.106L705.878 154.187V172.025L690.43 163.106Z" fill="white"/>
<path d="M693.74 128.417L705.878 121.409V135.425L693.74 128.417Z" fill="white"/>
<path d="M697.05 93.729L705.878 88.6323V98.8254L697.05 93.729Z" fill="white"/>
<path d="M700.361 59.0393L705.878 55.8541V62.2246L700.361 59.0393Z" fill="white"/>
<path d="M700.361 856.859L705.878 853.674V860.045L700.361 856.859Z" fill="white"/>
<path d="M697.05 822.17L705.878 817.074V827.267L697.05 822.17Z" fill="white"/>
<path d="M693.74 787.483L705.878 780.475V794.491L693.74 787.483Z" fill="white"/>
<path d="M690.43 752.794L705.878 743.875V761.713L690.43 752.794Z" fill="white"/>
<path d="M687.119 718.105L705.878 707.275V728.935L687.119 718.105Z" fill="white"/>
<path d="M683.809 683.416L705.878 670.675V696.157L683.809 683.416Z" fill="white"/>
<path d="M680.499 648.727L705.878 634.075V663.38L680.499 648.727Z" fill="white"/>
<path d="M677.188 614.038L705.878 597.475V630.602L677.188 614.038Z" fill="white"/>
<path d="M673.878 579.351L705.878 560.876V597.825L673.878 579.351Z" fill="white"/>
<path d="M673.878 544.661L705.878 526.186V563.136L673.878 544.661Z" fill="white"/>
<path d="M673.878 509.972L705.878 491.497V528.447L673.878 509.972Z" fill="white"/>
<path d="M673.878 475.284L705.878 456.809V493.759L673.878 475.284Z" fill="white"/>
<path d="M749.872 440.616L775.251 425.963V455.268L749.872 440.616Z" fill="white"/>
<path d="M749.872 405.927L775.251 391.274V420.579L749.872 405.927Z" fill="white"/>
<path d="M749.872 371.238L775.251 356.586V385.891L749.872 371.238Z" fill="white"/>
<path d="M749.872 336.55L775.251 321.897V351.202L749.872 336.55Z" fill="white"/>
<path d="M749.872 301.86L775.251 287.208V316.513L749.872 301.86Z" fill="white"/>
<path d="M753.183 267.172L775.251 254.431V279.913L753.183 267.172Z" fill="white"/>
<path d="M756.493 232.483L775.251 221.652V243.313L756.493 232.483Z" fill="white"/>
<path d="M759.803 197.794L775.251 188.875V206.713L759.803 197.794Z" fill="white"/>
<path d="M763.114 163.106L775.251 156.098V170.113L763.114 163.106Z" fill="white"/>
<path d="M766.424 128.418L775.251 123.321V133.514L766.424 128.418Z" fill="white"/>
<path d="M766.424 787.483L775.251 782.386V792.58L766.424 787.483Z" fill="white"/>
<path d="M763.114 752.794L775.251 745.786V759.801L763.114 752.794Z" fill="white"/>
<path d="M759.803 718.105L775.251 709.186V727.024L759.803 718.105Z" fill="white"/>
<path d="M756.493 683.417L775.251 672.587V694.247L756.493 683.417Z" fill="white"/>
<path d="M753.183 648.727L775.251 635.986V661.469L753.183 648.727Z" fill="white"/>
<path d="M749.872 614.039L775.251 599.386V628.691L749.872 614.039Z" fill="white"/>
<path d="M749.872 579.349L775.251 564.697V594.002L749.872 579.349Z" fill="white"/>
<path d="M749.872 544.662L775.251 530.01V559.314L749.872 544.662Z" fill="white"/>
<path d="M749.872 509.973L775.251 495.321V524.626L749.872 509.973Z" fill="white"/>
<path d="M749.872 475.284L775.251 460.631V489.936L749.872 475.284Z" fill="white"/>
<path d="M635.882 457.96L671.192 437.574V478.346L635.882 457.96Z" fill="white"/>
<path d="M635.882 423.271L671.192 402.885V443.657L635.882 423.271Z" fill="white"/>
<path d="M635.882 388.583L671.192 368.197V408.969L635.882 388.583Z" fill="white"/>
<path d="M635.882 353.894L671.192 333.508V374.28L635.882 353.894Z" fill="white"/>
<path d="M639.193 319.205L671.192 300.731V337.68L639.193 319.205Z" fill="white"/>
<path d="M642.46 284.569L671.192 267.981V301.158L642.46 284.569Z" fill="white"/>
<path d="M645.813 249.828L671.192 235.176V264.481L645.813 249.828Z" fill="white"/>
<path d="M649.123 215.14L671.192 202.399V227.881L649.123 215.14Z" fill="white"/>
<path d="M652.434 180.45L671.192 169.62V191.281L652.434 180.45Z" fill="white"/>
<path d="M655.744 145.762L671.192 136.843V154.681L655.744 145.762Z" fill="white"/>
<path d="M659.054 111.073L671.192 104.066V118.081L659.054 111.073Z" fill="white"/>
<path d="M662.365 76.3842L671.192 71.2875V81.4806L662.365 76.3842Z" fill="white"/>
<path d="M665.675 41.6953L671.192 38.5102V44.8807L665.675 41.6953Z" fill="white"/>
<path d="M665.675 874.204L671.192 871.019V877.39L665.675 874.204Z" fill="white"/>
<path d="M662.365 839.517L671.192 834.42V844.614L662.365 839.517Z" fill="white"/>
<path d="M659.054 804.829L671.192 797.821V811.837L659.054 804.829Z" fill="white"/>
<path d="M655.744 770.138L671.192 761.219V779.057L655.744 770.138Z" fill="white"/>
<path d="M652.434 735.45L671.192 724.62V746.28L652.434 735.45Z" fill="white"/>
<path d="M649.123 700.761L671.192 688.02V713.503L649.123 700.761Z" fill="white"/>
<path d="M645.813 666.072L671.192 651.42V680.725L645.813 666.072Z" fill="white"/>
<path d="M642.503 631.384L671.192 614.82V647.947L642.503 631.384Z" fill="white"/>
<path d="M639.193 596.695L671.192 578.22V615.17L639.193 596.695Z" fill="white"/>
<path d="M635.882 562.006L671.192 541.62V582.392L635.882 562.006Z" fill="white"/>
<path d="M635.882 527.317L671.192 506.931V547.703L635.882 527.317Z" fill="white"/>
<path d="M635.882 492.629L671.192 472.243V513.015L635.882 492.629Z" fill="white"/>
<path d="M597.887 439.212L636.507 416.914V461.509L597.887 439.212Z" fill="white"/>
<path d="M597.887 404.523L636.507 382.226V426.82L597.887 404.523Z" fill="white"/>
<path d="M597.887 369.833L636.507 347.536V392.131L597.887 369.833Z" fill="white"/>
<path d="M601.197 335.145L636.507 314.759V355.531L601.197 335.145Z" fill="white"/>
<path d="M604.507 300.456L636.507 281.982V318.931L604.507 300.456Z" fill="white"/>
<path d="M607.774 265.794L636.507 249.205V282.383L607.774 265.794Z" fill="white"/>
<path d="M611.128 231.079L636.507 216.427V245.732L611.128 231.079Z" fill="white"/>
<path d="M614.438 196.391L636.507 183.65V209.132L614.438 196.391Z" fill="white"/>
<path d="M617.749 161.701L636.507 150.871V172.532L617.749 161.701Z" fill="white"/>
<path d="M621.059 127.014L636.507 118.095V135.932L621.059 127.014Z" fill="white"/>
<path d="M624.369 92.3242L636.507 85.3165V99.3318L624.369 92.3242Z" fill="white"/>
<path d="M627.679 57.6355L636.507 52.5389V62.732L627.679 57.6355Z" fill="white"/>
<path d="M630.99 22.9468L636.507 19.7617V26.1322L630.99 22.9468Z" fill="white"/>
<path d="M630.99 890.145L636.507 886.959V893.33L630.99 890.145Z" fill="white"/>
<path d="M627.679 855.455L636.507 850.359V860.551L627.679 855.455Z" fill="white"/>
<path d="M624.369 820.766L636.507 813.759V827.774L624.369 820.766Z" fill="white"/>
<path d="M621.059 786.078L636.507 777.159V794.996L621.059 786.078Z" fill="white"/>
<path d="M617.749 751.389L636.507 740.559V762.219L617.749 751.389Z" fill="white"/>
<path d="M614.438 716.702L636.507 703.961V729.443L614.438 716.702Z" fill="white"/>
<path d="M611.128 682.012L636.507 667.359V696.664L611.128 682.012Z" fill="white"/>
<path d="M607.818 647.323L636.507 630.759V663.887L607.818 647.323Z" fill="white"/>
<path d="M604.507 612.634L636.507 594.16V631.109L604.507 612.634Z" fill="white"/>
<path d="M601.197 577.945L636.507 557.559V598.331L601.197 577.945Z" fill="white"/>
<path d="M597.887 543.257L636.507 520.959V565.554L597.887 543.257Z" fill="white"/>
<path d="M597.887 508.569L636.507 486.272V530.867L597.887 508.569Z" fill="white"/>
<path d="M597.887 473.88L636.507 451.583V496.177L597.887 473.88Z" fill="white"/>
<path d="M559.89 457.961L601.82 433.752V482.169L559.89 457.961Z" fill="white"/>
<path d="M559.89 423.273L601.82 399.064V447.481L559.89 423.273Z" fill="white"/>
<path d="M559.89 388.584L601.82 364.375V412.792L559.89 388.584Z" fill="white"/>
<path d="M563.2 353.895L601.82 331.598V376.192L563.2 353.895Z" fill="white"/>
<path d="M566.51 319.207L601.82 298.821V339.593L566.51 319.207Z" fill="white"/>
<path d="M569.82 284.519L601.82 266.044V302.993L569.82 284.519Z" fill="white"/>
<path d="M573.087 249.829L601.82 233.24V266.418L573.087 249.829Z" fill="white"/>
<path d="M576.441 215.14L601.82 200.488V229.792L576.441 215.14Z" fill="white"/>
<path d="M579.751 180.451L601.82 167.71V193.192L579.751 180.451Z" fill="white"/>
<path d="M583.062 145.764L601.82 134.934V156.594L583.062 145.764Z" fill="white"/>
<path d="M586.372 111.074L601.82 102.155V119.992L586.372 111.074Z" fill="white"/>
<path d="M589.682 76.3854L601.82 69.3774V83.3931L589.682 76.3854Z" fill="white"/>
<path d="M592.993 41.6963L601.82 36.5999V46.793L592.993 41.6963Z" fill="white"/>
<path d="M596.303 7.0071L601.82 3.82172V10.1925L596.303 7.0071Z" fill="white"/>
<path d="M596.303 908.894L601.82 905.709V912.079L596.303 908.894Z" fill="white"/>
<path d="M592.993 874.205L601.82 869.109V879.302L592.993 874.205Z" fill="white"/>
<path d="M589.682 839.517L601.82 832.509V846.524L589.682 839.517Z" fill="white"/>
<path d="M586.372 804.828L601.82 795.909V813.747L586.372 804.828Z" fill="white"/>
<path d="M583.062 770.138L601.82 759.308V780.968L583.062 770.138Z" fill="white"/>
<path d="M579.751 735.451L601.82 722.709V748.192L579.751 735.451Z" fill="white"/>
<path d="M576.441 700.762L601.82 686.109V715.414L576.441 700.762Z" fill="white"/>
<path d="M573.131 666.072L601.82 649.509V682.636L573.131 666.072Z" fill="white"/>
<path d="M569.82 631.383L601.82 612.909V649.858L569.82 631.383Z" fill="white"/>
<path d="M566.51 596.696L601.82 576.309V617.081L566.51 596.696Z" fill="white"/>
<path d="M563.2 562.007L601.82 539.71V584.304L563.2 562.007Z" fill="white"/>
<path d="M559.89 527.318L601.82 503.109V551.526L559.89 527.318Z" fill="white"/>
<path d="M559.89 492.63L601.82 468.422V516.839L559.89 492.63Z" fill="white"/>
<path d="M483.894 457.961L532.445 429.93V485.992L483.894 457.961Z" fill="white"/>
<path d="M483.894 423.272L532.445 395.241V451.302L483.894 423.272Z" fill="white"/>
<path d="M487.204 388.583L532.445 362.463V414.702L487.204 388.583Z" fill="white"/>
<path d="M490.515 353.894L532.445 329.685V378.102L490.515 353.894Z" fill="white"/>
<path d="M493.825 319.205L532.445 296.908V341.503L493.825 319.205Z" fill="white"/>
<path d="M497.135 284.517L532.445 264.13V304.903L497.135 284.517Z" fill="white"/>
<path d="M500.446 249.828L532.445 231.353V268.303L500.446 249.828Z" fill="white"/>
<path d="M503.712 215.087L532.445 198.498V231.676L503.712 215.087Z" fill="white"/>
<path d="M507.066 180.45L532.445 165.798V195.103L507.066 180.45Z" fill="white"/>
<path d="M510.377 145.762L532.445 133.021V158.503L510.377 145.762Z" fill="white"/>
<path d="M513.687 111.074L532.445 100.243V121.904L513.687 111.074Z" fill="white"/>
<path d="M516.997 76.3846L532.445 67.4656V85.3033L516.997 76.3846Z" fill="white"/>
<path d="M520.307 41.6956L532.445 34.6879V48.7033L520.307 41.6956Z" fill="white"/>
<path d="M523.618 7.00754L532.445 1.91113V12.1039L523.618 7.00754Z" fill="white"/>
<path d="M523.618 908.893L532.445 903.797V913.99L523.618 908.893Z" fill="white"/>
<path d="M520.307 874.205L532.445 867.197V881.213L520.307 874.205Z" fill="white"/>
<path d="M516.997 839.516L532.445 830.597V848.435L516.997 839.516Z" fill="white"/>
<path d="M513.687 804.828L532.445 793.998V815.659L513.687 804.828Z" fill="white"/>
<path d="M510.377 770.139L532.445 757.398V782.881L510.377 770.139Z" fill="white"/>
<path d="M507.066 735.449L532.445 720.797V750.102L507.066 735.449Z" fill="white"/>
<path d="M503.756 700.761L532.445 684.198V717.325L503.756 700.761Z" fill="white"/>
<path d="M500.446 666.072L532.445 647.597V684.547L500.446 666.072Z" fill="white"/>
<path d="M497.135 631.384L532.445 610.997V651.77L497.135 631.384Z" fill="white"/>
<path d="M493.825 596.695L532.445 574.398V618.992L493.825 596.695Z" fill="white"/>
<path d="M490.515 562.007L532.445 537.798V586.215L490.515 562.007Z" fill="white"/>
<path d="M487.204 527.317L532.445 501.198V553.437L487.204 527.317Z" fill="white"/>
<path d="M483.894 492.629L532.445 464.598V520.66L483.894 492.629Z" fill="white"/>
<path d="M445.895 440.616L497.757 410.674V470.558L445.895 440.616Z" fill="white"/>
<path d="M449.206 405.928L497.757 377.897V433.959L449.206 405.928Z" fill="white"/>
<path d="M452.516 371.239L497.757 345.119V397.358L452.516 371.239Z" fill="white"/>
<path d="M455.826 336.551L497.757 312.342V360.759L455.826 336.551Z" fill="white"/>
<path d="M459.136 301.861L497.757 279.564V324.159L459.136 301.861Z" fill="white"/>
<path d="M462.447 267.172L497.757 246.786V287.558L462.447 267.172Z" fill="white"/>
<path d="M465.757 232.484L497.757 214.009V250.959L465.757 232.484Z" fill="white"/>
<path d="M469.024 197.717L497.757 181.128V214.306L469.024 197.717Z" fill="white"/>
<path d="M472.378 163.107L497.757 148.454V177.759L472.378 163.107Z" fill="white"/>
<path d="M475.688 128.417L497.757 115.676V141.158L475.688 128.417Z" fill="white"/>
<path d="M478.998 93.7296L497.757 82.8993V104.56L478.998 93.7296Z" fill="white"/>
<path d="M482.309 59.0408L497.757 50.1221V67.9598L482.309 59.0408Z" fill="white"/>
<path d="M485.619 24.3516L497.757 17.3439V31.3593L485.619 24.3516Z" fill="white"/>
<path d="M485.619 891.548L497.757 884.541V898.556L485.619 891.548Z" fill="white"/>
<path d="M482.309 856.86L497.757 847.941V865.779L482.309 856.86Z" fill="white"/>
<path d="M478.998 822.171L497.757 811.341V833.001L478.998 822.171Z" fill="white"/>
<path d="M475.688 787.482L497.757 774.741V800.224L475.688 787.482Z" fill="white"/>
<path d="M472.378 752.794L497.757 738.141V767.446L472.378 752.794Z" fill="white"/>
<path d="M469.067 718.107L497.757 701.543V734.67L469.067 718.107Z" fill="white"/>
<path d="M465.757 683.417L497.757 664.942V701.892L465.757 683.417Z" fill="white"/>
<path d="M462.447 648.728L497.757 628.342V669.114L462.447 648.728Z" fill="white"/>
<path d="M459.136 614.039L497.757 591.742V636.336L459.136 614.039Z" fill="white"/>
<path d="M455.826 579.351L497.757 555.142V603.559L455.826 579.351Z" fill="white"/>
<path d="M452.516 544.661L497.757 518.542V570.781L452.516 544.661Z" fill="white"/>
<path d="M449.206 509.973L497.757 481.942V538.004L449.206 509.973Z" fill="white"/>
<path d="M445.895 475.284L497.757 445.342V505.226L445.895 475.284Z" fill="white"/>
<path d="M521.89 440.616L567.13 414.497V466.736L521.89 440.616Z" fill="white"/>
<path d="M521.89 405.927L567.13 379.808V432.047L521.89 405.927Z" fill="white"/>
<path d="M525.2 371.239L567.13 347.031V395.448L525.2 371.239Z" fill="white"/>
<path d="M528.51 336.55L567.13 314.253V358.847L528.51 336.55Z" fill="white"/>
<path d="M531.821 301.862L567.13 281.476V322.248L531.821 301.862Z" fill="white"/>
<path d="M535.131 267.173L567.13 248.698V285.648L535.131 267.173Z" fill="white"/>
<path d="M538.398 232.458L567.13 215.869V249.046L538.398 232.458Z" fill="white"/>
<path d="M541.752 197.795L567.13 183.143V212.448L541.752 197.795Z" fill="white"/>
<path d="M545.062 163.107L567.13 150.365V175.848L545.062 163.107Z" fill="white"/>
<path d="M548.372 128.418L567.13 117.588V139.248L548.372 128.418Z" fill="white"/>
<path d="M551.682 93.7293L567.13 84.8104V102.648L551.682 93.7293Z" fill="white"/>
<path d="M554.993 59.0403L567.13 52.0326V66.048L554.993 59.0403Z" fill="white"/>
<path d="M558.303 24.3517L567.13 19.2552V29.4483L558.303 24.3517Z" fill="white"/>
<path d="M558.303 891.55L567.13 886.453V896.646L558.303 891.55Z" fill="white"/>
<path d="M554.993 856.86L567.13 849.853V863.868L554.993 856.86Z" fill="white"/>
<path d="M551.682 822.172L567.13 813.253V831.09L551.682 822.172Z" fill="white"/>
<path d="M548.372 787.483L567.13 776.653V798.314L548.372 787.483Z" fill="white"/>
<path d="M545.062 752.795L567.13 740.053V765.536L545.062 752.795Z" fill="white"/>
<path d="M541.752 718.106L567.13 703.454V732.758L541.752 718.106Z" fill="white"/>
<path d="M538.441 683.417L567.13 666.853V699.981L538.441 683.417Z" fill="white"/>
<path d="M535.131 648.728L567.13 630.254V667.203L535.131 648.728Z" fill="white"/>
<path d="M531.821 614.04L567.13 593.653V634.426L531.821 614.04Z" fill="white"/>
<path d="M528.51 579.351L567.13 557.053V601.648L528.51 579.351Z" fill="white"/>
<path d="M525.2 544.663L567.13 520.454V568.871L525.2 544.663Z" fill="white"/>
<path d="M521.89 509.973L567.13 483.854V536.093L521.89 509.973Z" fill="white"/>
<path d="M521.89 475.284L567.13 449.165V501.404L521.89 475.284Z" fill="white"/>
</g>
</svg>
