<svg width="1610" height="1594" viewBox="0 0 1610 1594" fill="none" xmlns="http://www.w3.org/2000/svg">
<g opacity="0.66">
<path opacity="0.05" d="M953.008 714.86L924.522 761.435C923.552 763.006 922.685 762.948 921.923 761.261L896.279 705.156C895.517 703.47 896.048 702.777 897.873 703.077L951.726 712.053C953.551 712.353 953.978 713.289 953.008 714.86Z" fill="white"/>
<path opacity="0.05" d="M965.137 805.376L915.997 829.114C914.334 829.923 913.629 829.415 913.883 827.589L922.685 766.529C922.939 764.704 923.748 764.415 925.111 765.662L965.587 802.292C966.95 803.539 966.8 804.568 965.137 805.376" fill="white"/>
<path opacity="0.05" d="M926.428 888.026L872.229 881.511C870.404 881.28 870.092 880.472 871.293 879.085L911.7 832.406C912.901 831.02 913.745 831.217 914.23 832.995L928.438 885.704C928.923 887.483 928.253 888.257 926.428 888.026" fill="white"/>
<path opacity="0.05" d="M849.115 936.681L807.114 901.853C805.682 900.675 805.855 899.82 807.634 899.289L866.823 881.962C868.602 881.431 869.214 882.043 868.66 883.798L852.095 935.814C851.541 937.57 850.547 937.859 849.115 936.681" fill="white"/>
<path opacity="0.05" d="M757.836 935.814L741.271 883.798C740.717 882.043 741.329 881.431 743.108 881.962L802.297 899.289C804.076 899.82 804.249 900.675 802.817 901.853L760.816 936.681C759.383 937.859 758.39 937.57 757.836 935.814" fill="white"/>
<path opacity="0.05" d="M681.493 885.704L695.701 832.995C696.186 831.217 697.03 831.02 698.231 832.406L738.638 879.085C739.839 880.472 739.527 881.28 737.702 881.511L683.503 888.026C681.678 888.257 681.008 887.483 681.493 885.704" fill="white"/>
<path opacity="0.05" d="M644.344 802.292L684.82 765.662C686.183 764.415 686.992 764.704 687.246 766.529L696.048 827.589C696.302 829.415 695.597 829.923 693.934 829.114L644.794 805.376C643.131 804.568 642.981 803.539 644.344 802.292Z" fill="white"/>
<path opacity="0.05" d="M658.205 712.053L712.058 703.077C713.883 702.777 714.414 703.47 713.652 705.156L688.008 761.261C687.245 762.948 686.379 763.006 685.409 761.435L656.923 714.86C655.953 713.289 656.38 712.353 658.205 712.053Z" fill="white"/>
<path opacity="0.05" d="M718.677 643.645L768.787 665.166C770.496 665.905 770.577 666.771 769.029 667.765L717.117 701.137C715.569 702.13 714.818 701.702 714.865 699.854L716.043 645.309C716.089 643.461 716.967 642.906 718.677 643.645" fill="white"/>
<path opacity="0.05" d="M806.525 618.729L837.02 663.987C838.06 665.512 837.656 666.274 835.808 666.274H774.123C772.275 666.274 771.871 665.512 772.91 663.987L803.406 618.729C804.446 617.204 805.485 617.204 806.525 618.729Z" fill="white"/>
<path opacity="0.05" d="M893.888 645.309L895.066 699.854C895.112 701.702 894.362 702.13 892.814 701.137L840.902 667.765C839.354 666.771 839.435 665.905 841.144 665.166L891.254 643.645C892.964 642.906 893.842 643.461 893.888 645.309" fill="white"/>
<path opacity="0.05" d="M1026.96 750.449L969.677 802.292C968.314 803.539 967.505 803.251 967.251 801.426L954.845 715.241C954.591 713.416 955.295 712.908 956.959 713.716L1026.51 747.365C1028.17 748.174 1028.32 749.202 1026.96 750.449Z" fill="white"/>
<path opacity="0.09" d="M1008.11 875.239L931.904 887.922C930.078 888.223 929.547 887.53 930.309 885.843L966.488 806.693C967.251 805.006 968.117 804.949 969.087 806.52L1009.39 872.432C1010.36 874.003 1009.93 874.938 1008.11 875.239" fill="white"/>
<path opacity="0.09" d="M924.799 970.052L853.793 939.557C852.107 938.818 852.037 937.951 853.585 936.958L926.844 889.863C928.392 888.869 929.143 889.297 929.097 891.145L927.398 968.389C927.352 970.237 926.486 970.792 924.799 970.052" fill="white"/>
<path opacity="0.05" d="M803.406 1004.81L760.227 940.735C759.187 939.21 759.592 938.448 761.44 938.448H848.491C850.339 938.448 850.744 939.21 849.704 940.735L806.525 1004.81C805.485 1006.34 804.446 1006.34 803.406 1004.81Z" fill="white"/>
<path opacity="0.05" d="M682.533 968.389L680.835 891.145C680.788 889.297 681.539 888.869 683.087 889.863L756.346 936.958C757.894 937.951 757.824 938.818 756.138 939.557L685.132 970.052C683.445 970.792 682.579 970.237 682.533 968.389Z" fill="white"/>
<path opacity="0.05" d="M600.541 872.432L640.844 806.52C641.814 804.949 642.68 805.006 643.443 806.693L679.622 885.843C680.384 887.53 679.853 888.223 678.027 887.922L601.823 875.239C599.998 874.938 599.57 874.003 600.541 872.432" fill="white"/>
<path opacity="0.05" d="M583.422 747.365L652.973 713.716C654.636 712.908 655.34 713.416 655.086 715.241L642.68 801.426C642.426 803.251 641.618 803.539 640.254 802.292L582.971 750.449C581.608 749.202 581.758 748.174 583.422 747.365" fill="white"/>
<path opacity="0.11" d="M636.65 632.903L713.375 642.19C715.2 642.421 715.512 643.23 714.31 644.616L657.27 710.424C656.068 711.81 655.225 711.613 654.74 709.835L634.64 635.224C634.155 633.446 634.825 632.672 636.65 632.903Z" fill="white"/>
<path opacity="0.11" d="M743.35 565.362L802.817 614.675C804.249 615.853 804.076 616.708 802.297 617.239L718.781 641.739C717.002 642.271 716.389 641.659 716.944 639.903L740.37 566.228C740.925 564.472 741.918 564.183 743.35 565.362" fill="white"/>
<path opacity="0.05" d="M869.561 566.228L892.987 639.903C893.541 641.659 892.929 642.271 891.15 641.739L807.634 617.239C805.855 616.708 805.682 615.853 807.114 614.675L866.581 565.362C868.013 564.183 869.006 564.472 869.561 566.228" fill="white"/>
<path opacity="0.05" d="M975.291 635.224L955.191 709.835C954.706 711.614 953.863 711.81 952.661 710.424L895.621 644.616C894.419 643.23 894.731 642.421 896.556 642.19L973.281 632.903C975.106 632.671 975.776 633.446 975.291 635.224" fill="white"/>
<path opacity="0.05" d="M1087.05 653.626L1030.46 746.222C1029.49 747.792 1028.62 747.735 1027.86 746.048L977.162 635.086C976.399 633.399 976.931 632.706 978.756 633.006L1085.77 650.819C1087.59 651.119 1088.02 652.055 1087.05 653.626" fill="white"/>
<path opacity="0.05" d="M1111.03 826.342L1013.34 873.575C1011.68 874.384 1010.97 873.876 1011.23 872.051L1028.62 751.316C1028.88 749.49 1029.69 749.202 1031.05 750.449L1111.48 823.258C1112.84 824.505 1112.69 825.533 1111.03 826.342" fill="white"/>
<path opacity="0.05" d="M1037.81 984.573L930.067 971.508C928.242 971.277 927.93 970.468 929.131 969.082L1009.04 876.868C1010.25 875.481 1011.09 875.678 1011.57 877.457L1039.82 982.251C1040.3 984.03 1039.63 984.804 1037.81 984.573Z" fill="white"/>
<path opacity="0.05" d="M890.631 1078.1L807.114 1008.87C805.682 1007.69 805.855 1006.83 807.634 1006.3L924.661 971.959C926.44 971.427 927.052 972.039 926.498 973.795L893.611 1077.24C893.056 1078.99 892.063 1079.28 890.631 1078.1Z" fill="white"/>
<path opacity="0.09" d="M716.32 1077.24L683.433 973.795C682.879 972.039 683.491 971.427 685.27 971.959L802.297 1006.3C804.076 1006.83 804.249 1007.69 802.817 1008.87L719.3 1078.1C717.868 1079.28 716.875 1078.99 716.32 1077.24Z" fill="white"/>
<path opacity="0.09" d="M570.115 982.251L598.358 877.457C598.843 875.678 599.686 875.481 600.887 876.868L680.8 969.082C682.001 970.468 681.689 971.277 679.864 971.508L572.124 984.573C570.299 984.804 569.629 984.03 570.115 982.251Z" fill="white"/>
<path opacity="0.11" d="M498.45 823.258L578.882 750.449C580.245 749.202 581.053 749.49 581.308 751.316L598.704 872.051C598.958 873.876 598.254 874.384 596.59 873.575L498.9 826.342C497.237 825.533 497.087 824.505 498.45 823.258" fill="white"/>
<path opacity="0.11" d="M524.163 650.819L631.175 633.006C633 632.706 633.532 633.399 632.769 635.086L582.07 746.048C581.308 747.735 580.442 747.792 579.471 746.222L522.881 653.626C521.911 652.055 522.338 651.119 524.163 650.819" fill="white"/>
<path opacity="0.09" d="M638.972 519.653L738.672 562.485C740.359 563.225 740.428 564.091 738.88 565.084L636.234 631.066C634.686 632.059 633.936 631.632 633.982 629.784L636.373 521.316C636.42 519.468 637.286 518.914 638.972 519.653Z" fill="white"/>
<path opacity="0.05" d="M806.525 471.345L867.17 561.307C868.209 562.832 867.805 563.594 865.957 563.594H743.974C742.126 563.594 741.722 562.832 742.761 561.307L803.406 471.345C804.446 469.82 805.485 469.82 806.525 471.345Z" fill="white"/>
<path opacity="0.11" d="M973.558 521.316L975.949 629.784C975.995 631.632 975.244 632.059 973.696 631.066L871.051 565.084C869.503 564.091 869.572 563.225 871.259 562.485L970.959 519.653C972.645 518.914 973.512 519.468 973.558 521.316" fill="white"/>
<path opacity="0.09" d="M1227.88 721.548L1115.57 823.258C1114.21 824.505 1113.4 824.217 1113.14 822.391L1088.89 654.007C1088.63 652.182 1089.34 651.674 1091 652.482L1227.43 718.464C1229.1 719.272 1229.25 720.3 1227.88 721.548" fill="white"/>
<path opacity="0.11" d="M1192.75 959.587L1043.28 984.469C1041.46 984.769 1040.93 984.076 1041.69 982.389L1112.38 827.659C1113.14 825.972 1114.01 825.915 1114.98 827.485L1194.03 956.78C1195 958.351 1194.57 959.287 1192.75 959.587Z" fill="white"/>
<path opacity="0.05" d="M1034.55 1140.83L895.309 1080.98C893.622 1080.24 893.553 1079.37 895.101 1078.38L1038.22 986.409C1039.77 985.416 1040.52 985.843 1040.47 987.691L1037.15 1139.16C1037.1 1141.01 1036.24 1141.57 1034.55 1140.83Z" fill="white"/>
<path opacity="0.05" d="M803.406 1207.81L718.711 1082.16C717.672 1080.63 718.076 1079.87 719.924 1079.87H890.007C891.855 1079.87 892.259 1080.63 891.22 1082.16L806.525 1207.81C805.485 1209.34 804.446 1209.34 803.406 1207.81Z" fill="white"/>
<path opacity="0.05" d="M572.783 1139.16L569.456 987.691C569.41 985.843 570.161 985.416 571.709 986.409L714.83 1078.38C716.378 1079.37 716.309 1080.24 714.622 1080.98L575.382 1140.83C573.696 1141.57 572.829 1141.01 572.783 1139.16Z" fill="white"/>
<path opacity="0.09" d="M415.904 956.78L494.95 827.485C495.92 825.915 496.787 825.972 497.549 827.659L568.243 982.389C569.006 984.076 568.475 984.769 566.649 984.469L417.186 959.587C415.361 959.287 414.934 958.351 415.904 956.78Z" fill="white"/>
<path opacity="0.09" d="M382.497 718.464L518.93 652.482C520.594 651.674 521.298 652.182 521.044 654.007L496.786 822.391C496.532 824.217 495.724 824.505 494.361 823.258L382.047 721.548C380.684 720.3 380.834 719.272 382.497 718.464Z" fill="white"/>
<path opacity="0.05" d="M483.237 499.969L633.705 518.197C635.53 518.429 635.842 519.237 634.641 520.623L523.228 649.19C522.026 650.576 521.183 650.38 520.698 648.601L481.227 502.291C480.742 500.512 481.411 499.738 483.237 499.969" fill="white"/>
<path opacity="0.09" d="M686.171 370.605L802.817 467.29C804.249 468.469 804.076 469.324 802.297 469.855L639.111 517.747C637.332 518.278 636.72 517.666 637.274 515.91L683.191 371.472C683.745 369.716 684.739 369.427 686.171 370.605" fill="white"/>
<path opacity="0.05" d="M926.74 371.472L972.657 515.91C973.211 517.666 972.599 518.278 970.82 517.747L807.634 469.855C805.855 469.324 805.682 468.469 807.114 467.29L923.76 370.605C925.192 369.427 926.186 369.716 926.74 371.472" fill="white"/>
<path opacity="0.09" d="M1128.7 502.291L1089.23 648.601C1088.75 650.38 1087.9 650.576 1086.7 649.19L975.291 520.623C974.089 519.237 974.401 518.429 976.226 518.197L1126.69 499.969C1128.52 499.738 1129.19 500.512 1128.7 502.291" fill="white"/>
<path opacity="0.05" d="M1341.38 537.5L1231.38 717.32C1230.41 718.891 1229.55 718.833 1228.79 717.147L1130.58 502.153C1129.81 500.466 1130.34 499.773 1132.17 500.073L1340.09 534.693C1341.92 534.993 1342.35 535.929 1341.38 537.5" fill="white"/>
<path opacity="0.05" d="M1387.74 866.125L1197.98 957.924C1196.31 958.732 1195.61 958.224 1195.86 956.399L1229.55 722.414C1229.8 720.589 1230.61 720.3 1231.97 721.548L1388.19 863.041C1389.56 864.288 1389.41 865.316 1387.74 866.125" fill="white"/>
<path opacity="0.09" d="M1249.09 1167.65L1039.82 1142.28C1037.99 1142.05 1037.68 1141.24 1038.88 1139.86L1193.68 961.216C1194.88 959.83 1195.73 960.026 1196.21 961.805L1251.1 1165.33C1251.59 1167.11 1250.92 1167.88 1249.09 1167.65Z" fill="white"/>
<path opacity="0.05" d="M969.399 1346.36L807.114 1211.87C805.682 1210.69 805.855 1209.84 807.634 1209.3L1034.41 1142.73C1036.19 1142.2 1036.8 1142.81 1036.25 1144.57L972.38 1345.5C971.825 1347.25 970.832 1347.54 969.399 1346.36Z" fill="white"/>
<path opacity="0.09" d="M637.551 1345.5L573.684 1144.57C573.129 1142.81 573.742 1142.2 575.52 1142.73L802.297 1209.3C804.076 1209.84 804.249 1210.69 802.817 1211.87L640.532 1346.36C639.099 1347.54 638.106 1347.25 637.551 1345.5" fill="white"/>
<path opacity="0.05" d="M358.828 1165.33L413.721 961.805C414.206 960.026 415.049 959.83 416.25 961.216L571.05 1139.86C572.252 1141.24 571.94 1142.05 570.115 1142.28L360.838 1167.65C359.014 1167.88 358.343 1167.11 358.828 1165.33" fill="white"/>
<path opacity="0.05" d="M221.737 863.041L377.958 721.548C379.321 720.3 380.129 720.589 380.383 722.414L414.067 956.399C414.321 958.224 413.617 958.732 411.953 957.924L222.187 866.125C220.524 865.316 220.374 864.288 221.737 863.041" fill="white"/>
<path opacity="0.09" d="M269.837 534.693L477.761 500.073C479.587 499.773 480.118 500.466 479.356 502.153L381.146 717.147C380.383 718.833 379.517 718.891 378.547 717.32L268.554 537.5C267.584 535.929 268.012 534.993 269.837 534.693" fill="white"/>
<path opacity="0.09" d="M487.811 284.455L681.493 367.729C683.179 368.468 683.249 369.335 681.701 370.328L482.821 498.133C481.273 499.126 480.522 498.699 480.568 496.85L485.212 286.119C485.258 284.271 486.124 283.716 487.811 284.455" fill="white"/>
<path opacity="0.05" d="M806.525 191.756L924.349 366.551C925.388 368.076 924.984 368.838 923.136 368.838H686.795C684.947 368.838 684.542 368.076 685.582 366.551L803.406 191.756C804.446 190.231 805.485 190.231 806.525 191.756" fill="white"/>
<path opacity="0.09" d="M1124.72 286.119L1129.36 496.85C1129.41 498.699 1128.66 499.126 1127.11 498.133L928.23 370.328C926.682 369.335 926.752 368.468 928.438 367.729L1122.12 284.455C1123.81 283.716 1124.67 284.271 1124.72 286.119" fill="white"/>
<path opacity="0.05" d="M1609.01 666.76L1392.28 863.041C1390.92 864.288 1390.11 863.999 1389.86 862.174L1343.21 537.881C1342.96 536.056 1343.66 535.548 1345.33 536.356L1608.56 663.675C1610.22 664.484 1610.37 665.512 1609.01 666.76Z" fill="white"/>
<path opacity="0.09" d="M1542.99 1119.52L1254.57 1167.55C1252.74 1167.85 1252.21 1167.15 1252.97 1165.47L1389.1 867.442C1389.86 865.755 1390.72 865.697 1391.69 867.268L1544.28 1116.71C1545.25 1118.28 1544.82 1119.22 1542.99 1119.52" fill="white"/>
<path opacity="0.09" d="M1242.72 1464.74L974.077 1349.24C972.391 1348.5 972.322 1347.63 973.87 1346.64L1249.51 1169.49C1251.06 1168.49 1251.81 1168.92 1251.76 1170.77L1245.32 1463.08C1245.27 1464.92 1244.4 1465.48 1242.72 1464.74" fill="white"/>
<path opacity="0.11" d="M803.406 1592.86L639.943 1350.42C638.903 1348.89 639.307 1348.13 641.156 1348.13H968.776C970.624 1348.13 971.028 1348.89 969.988 1350.42L806.525 1592.86C805.485 1594.38 804.446 1594.38 803.406 1592.86" fill="white"/>
<path opacity="0.05" d="M364.616 1463.08L358.17 1170.77C358.124 1168.92 358.874 1168.49 360.422 1169.49L636.061 1346.64C637.609 1347.63 637.54 1348.5 635.853 1349.24L367.215 1464.74C365.528 1465.48 364.662 1464.92 364.616 1463.08Z" fill="white"/>
<path opacity="0.05" d="M65.6547 1116.71L218.237 867.268C219.207 865.697 220.073 865.755 220.836 867.442L356.957 1165.47C357.719 1167.15 357.188 1167.85 355.363 1167.55L66.9368 1119.52C65.1115 1119.22 64.6843 1118.28 65.6547 1116.71" fill="white"/>
<path opacity="0.05" d="M1.37125 663.675L264.604 536.356C266.267 535.548 266.972 536.056 266.718 537.881L220.073 862.174C219.819 863.999 219.011 864.288 217.648 863.041L0.920641 666.76C-0.442306 665.512 -0.292152 664.484 1.37125 663.675Z" fill="white"/>
<path opacity="0.05" d="M192.246 247.826L482.543 283C484.368 283.231 484.681 284.04 483.479 285.426L268.901 533.064C267.699 534.45 266.856 534.254 266.371 532.475L190.236 250.148C189.751 248.369 190.421 247.595 192.246 247.826" fill="white"/>
<path opacity="0.05" d="M577.669 1.15794L802.817 187.701C804.249 188.879 804.076 189.734 802.297 190.265L487.95 282.549C486.171 283.081 485.558 282.469 486.113 280.713L574.689 2.02429C575.243 0.268371 576.237 -0.0202982 577.669 1.15794Z" fill="white"/>
<path opacity="0.09" d="M1035.24 2.02429L1123.82 280.713C1124.37 282.469 1123.76 283.081 1121.98 282.549L807.634 190.265C805.855 189.734 805.682 188.879 807.114 187.701L1032.26 1.15794C1033.69 -0.0202982 1034.69 0.268371 1035.24 2.02429" fill="white"/>
<path opacity="0.11" d="M1419.7 250.148L1343.56 532.475C1343.07 534.254 1342.23 534.45 1341.03 533.064L1126.45 285.426C1125.25 284.04 1125.56 283.231 1127.39 283L1417.69 247.826C1419.51 247.595 1420.18 248.369 1419.7 250.148" fill="white"/>
</g>
</svg>
